<?xml version="1.0" encoding="utf-8"?>
<!-- Generator: Adobe Illustrator 15.0.0, SVG Export Plug-In . SVG Version: 6.00 Build 0)  -->
<!DOCTYPE svg PUBLIC "-//W3C//DTD SVG 1.1//EN" "http://www.w3.org/Graphics/SVG/1.1/DTD/svg11.dtd">
<svg version="1.1" id="Layer_1" xmlns="http://www.w3.org/2000/svg" xmlns:xlink="http://www.w3.org/1999/xlink" x="0px" y="0px"
	 width="841.89px" height="595.28px" viewBox="0 0 841.89 595.28" enable-background="new 0 0 841.89 595.28" xml:space="preserve">
<rect x="150.208" y="26.904" fill="#FFFFFF" width="541.473" height="541.473"/>
<g>
	<g>
		<path fill="#213C74" d="M226.426,382.355c2.438,0,4.117,1.337,4.93,2.436c0.948,1.278,1.409,2.676,1.625,3.507
			c0.027,0.148,0.108,0.238,0.217,0.238l0.487-0.059c0.108,0,0.135-0.119,0.135-0.268l-0.081-5.677c0-0.207-0.054-0.357-0.244-0.357
			c-0.163,0-0.271,0.15-0.379,0.268l-0.406,0.535c-0.163,0.238-0.325,0.298-0.623,0.029c-0.921-0.771-3.007-1.724-5.336-1.724
			c-3.25,0-5.688,1.011-7.611,2.824c-2.004,1.961-3.061,4.844-3.061,7.548c0,3.596,0.839,6.122,2.492,8.172
			c1.869,2.408,5.173,3.388,7.584,3.388c3.033,0,5.2-0.683,7.395-1.901c0.271-0.119,0.434-0.237,0.434-0.476
			s-0.108-0.535-0.108-0.95v-3.923c0-0.923,0.352-1.13,0.839-1.13h1.056c0.163,0,0.19-0.119,0.19-0.238v-0.712
			c0-0.119-0.027-0.209-0.217-0.209c-0.379,0-1.246,0.09-3.196,0.09c-1.842,0-3.061-0.09-3.44-0.09
			c-0.135,0-0.163,0.061-0.163,0.238v0.743c0,0.119,0.054,0.178,0.19,0.178h1.137c0.813,0,1.111,0.297,1.111,1.366v2.199
			c0,1.546-0.108,2.199-0.731,2.615c-0.948,0.595-2.275,1.011-4.442,1.011c-1.76,0-3.413-0.683-4.767-2.109
			c-1.68-1.753-2.573-4.814-2.573-8.321c0-2.674,0.921-5.141,2.383-6.835C222.878,382.859,224.557,382.355,226.426,382.355z"/>
		<path fill="#213C74" d="M241.784,401.285c2.14,1.456,4.497,1.931,5.824,1.931c3.738,0,6.148-1.782,7.801-4.188
			c1.409-2.082,2.032-4.34,2.032-6.51c0-4.101-1.733-7.014-3.711-8.886c-2.14-1.961-4.361-2.348-6.067-2.348
			c-2.275,0-4.957,0.594-7.34,3.774c-2.085,2.764-2.519,5.587-2.519,7.4C237.803,396.797,239.861,400.007,241.784,401.285z
			 M243.274,384.167c2.031-2.109,3.873-1.753,4.279-1.753c3.007,0,7.232,3.833,7.232,10.342c0,2.646-1.002,9.332-6.961,9.332
			c-2.302,0-7.259-2.764-7.259-10.581C240.565,389.071,241.459,386.069,243.274,384.167z"/>
		<path fill="#213C74" d="M264.349,382.801h1.3c0.189,0,0.217-0.119,0.217-0.268v-0.685c0-0.119-0.027-0.207-0.271-0.207
			c-0.244,0-1.462,0.088-3.738,0.088c-2.112,0-3.006-0.088-3.277-0.088c-0.162,0-0.189,0.059-0.189,0.207v0.743
			c0,0.119,0.027,0.209,0.136,0.209h0.704c0.569,0,0.84,0.297,1.111,0.979c0.352,0.894,1.625,5.201,2.275,7.311l0.271,1.011
			c0.353,1.071,2.546,7.846,3.413,10.581c0.136,0.385,0.244,0.682,0.46,0.682c0.135,0,0.271-0.148,0.379-0.385
			c0.136-0.297,3.63-9.748,3.955-10.729c0.46-1.247,2.627-7.34,3.332-8.29c0.514-0.684,1.029-1.159,1.923-1.159h0.731
			c0.162,0,0.189-0.09,0.189-0.209v-0.743c0-0.148-0.027-0.207-0.189-0.207c-0.244,0-0.921,0.088-2.898,0.088
			c-1.706,0-2.952-0.088-3.196-0.088c-0.135,0-0.162,0.059-0.162,0.207v0.685c0,0.178,0.027,0.268,0.135,0.268h0.704
			c0.677,0,0.867,0.326,0.867,0.683c0,0.416-0.162,0.951-0.379,1.694c-0.407,1.308-1.436,4.725-1.707,5.528
			c-0.217,0.682-2.33,6.804-2.898,8.202h-0.054c-0.623-1.814-2.194-6.924-2.519-8.054c-0.488-1.665-1.49-5.201-1.652-6.271
			c-0.081-0.417-0.108-0.772-0.108-1.011C263.211,383.068,263.59,382.801,264.349,382.801z"/>
		<path fill="#213C74" d="M280.276,400.394c0,1.101-0.108,1.308-1.354,1.308h-1.083c-0.189,0-0.271,0.029-0.271,0.148v0.802
			c0,0.148,0.082,0.209,0.244,0.209c0.244,0,0.596-0.029,1.164-0.061c0.542,0,1.301-0.029,2.303-0.029
			c4.226,0,6.853,0.029,8.478,0.029c1.625,0.031,2.221,0.061,2.357,0.061c0.325,0,0.515-0.178,0.596-0.446l1.436-4.368
			c0.082-0.238,0.082-0.327-0.054-0.417l-0.434-0.268c-0.163-0.088-0.244,0.029-0.325,0.18c-0.379,0.683-1.896,2.823-2.221,3.12
			c-0.704,0.653-1.896,0.981-2.356,1.04c-0.569,0.059-1.923,0.09-2.383,0.09c-0.677,0-1.463-0.09-2.005-0.209
			c-0.839-0.178-1.517-0.772-1.544-2.318c0-0.595-0.054-3.476-0.054-5.08v-1.844c0.434,0,2.302,0,3.575,0.148
			c0.705,0.09,1.002,0.536,1.165,1.159c0.081,0.326,0.244,1.011,0.298,1.396c0.027,0.209,0.081,0.298,0.216,0.269l0.596-0.089
			c0.108-0.03,0.163-0.09,0.163-0.238c-0.054-0.623-0.163-2.05-0.163-3.09c0-0.446,0-2.884,0.081-3.388
			c0.027-0.119-0.027-0.238-0.163-0.238l-0.677-0.029c-0.108,0-0.19,0.059-0.19,0.207c-0.027,0.564-0.135,1.159-0.217,1.456
			c-0.244,0.923-0.46,1.159-1.246,1.308c-0.325,0.061-3.223,0.178-3.44,0.178v-8.706l4.821,0.119
			c0.731,0.029,1.49,0.386,2.059,0.802c0.65,0.445,2.654,3.27,2.709,3.388c0.026,0.061,0.135,0.148,0.216,0.09l0.406-0.238
			c0.108-0.06,0.108-0.149,0.081-0.267c-0.081-0.297-1.273-4.368-1.381-4.785c-0.027-0.09-0.082-0.148-0.217-0.148
			c-0.136,0-0.65,0.059-1.083,0.059c-2.682,0-5.363,0.029-8.044,0.029h-1.192c-1.788,0-2.736-0.088-3.332-0.088
			c-0.136,0-0.19,0.059-0.19,0.148v0.802c0,0.18,0.082,0.209,0.217,0.209h0.975c1.002,0,1.273,0.207,1.381,1.159
			c0.027,0.297,0.082,4.011,0.082,6.478v2.913V400.394z"/>
		<path fill="#213C74" d="M297.611,400.69c0,0.804-0.46,1.011-1.057,1.011h-1.11c-0.135,0-0.135,0.09-0.135,0.238v0.683
			c0,0.148,0,0.238,0.217,0.238c0.298,0,0.921-0.09,3.386-0.09c2.573,0,3.25,0.09,3.548,0.09c0.271,0,0.298-0.061,0.298-0.268
			v-0.653c0-0.148-0.027-0.238-0.217-0.238h-1.707c-0.406,0-0.623-0.536-0.677-1.159c-0.027-0.446-0.054-3.774-0.054-5.528v-1.663
			c0.379-0.09,0.65-0.09,0.894-0.09c1.571,0,2.221,0.803,2.925,1.724c0.325,0.417,1.625,2.557,1.733,2.765
			c0.136,0.238,1.598,3.061,1.815,3.416c0.244,0.388,0.839,1.398,1.138,1.695c0.406-0.029,1.409-0.09,2.194-0.09
			c1.192,0,1.896,0.09,2.113,0.09c0.189,0,0.216-0.09,0.216-0.268v-0.653c0-0.119-0.027-0.238-0.216-0.238
			c-0.759,0-1.381-0.059-1.95-0.506c-0.515-0.415-2.248-3.12-2.383-3.417c-0.217-0.388-2.14-3.417-2.465-3.805
			c-0.217-0.326-0.596-0.861-1.246-1.129v-0.06c3.467-0.832,5.011-2.228,5.011-5.943c0-1.099-0.515-2.437-1.408-3.388
			c-1.03-1.069-2.817-1.813-5.065-1.813c-0.488,0-3.007,0.088-4.523,0.088c-2.275,0-3.115-0.088-3.358-0.088
			c-0.135,0-0.163,0.059-0.163,0.207v0.743c0,0.119,0.027,0.209,0.163,0.209h1.083c0.677,0,1.002,0.505,1.029,1.485
			c0.027,0.862,0.027,2.765,0.027,4.963v2.884C297.666,394.955,297.666,397.749,297.611,400.69z M300.104,383.78
			c0-0.475,0.135-0.802,0.325-0.95c0.244-0.178,0.596-0.238,0.921-0.238c2.248,0,3.439,0.445,4.496,1.368
			c0.785,0.714,1.354,2.02,1.354,3.388c0,1.247-0.948,4.963-5.877,4.963c-0.515,0-0.813-0.029-1.219-0.119V383.78z"/>
		<path fill="#213C74" d="M329.33,397.659c-0.65-0.95-5.228-7.102-5.526-7.519c-0.298-0.416-5.552-7.904-5.688-8.083
			c-0.216-0.268-0.433-0.387-0.786-0.387c-0.325,0-0.894,0.059-1.815,0.059c-0.92,0-1.517-0.029-1.923-0.059
			c-0.406,0-0.623-0.029-0.758-0.029c-0.135,0-0.163,0.059-0.163,0.178v0.772c0,0.09,0.027,0.209,0.163,0.209l1.111,0.029
			c0.975,0.029,1.787,1.011,1.787,2.764v5.052c0,5.291-0.054,8.679-0.108,9.243c-0.135,1.456-0.433,1.813-1.219,1.813h-0.921
			c-0.135,0-0.163,0.09-0.163,0.178v0.772c0,0.148,0.027,0.209,0.136,0.209c0.271,0,2.14-0.09,2.708-0.09
			c0.731,0,2.356,0.09,2.627,0.09c0.189,0,0.217-0.061,0.217-0.238v-0.653c0-0.178-0.027-0.268-0.217-0.268h-0.813
			c-0.731,0-0.894-0.565-1.002-1.725c-0.054-0.594-0.271-5.438-0.271-8.201v-6.598h0.162c0.163,0.238,5.146,7.104,5.444,7.4
			c0.163,0.178,2.14,2.911,4.036,5.497c1.679,2.318,3.277,4.518,3.304,4.576c0.082,0.119,0.325,0.477,0.65,0.477
			c0.108,0,0.135-0.297,0.135-0.714V391.3c0-1.931,0-4.873,0.108-6.865c0.054-1.129,0.325-1.634,1.056-1.634h0.731
			c0.108,0,0.163-0.09,0.163-0.209v-0.743c0-0.119-0.027-0.207-0.217-0.207c-0.352,0-1.002,0.088-2.627,0.088
			c-1.733,0-2.601-0.088-2.979-0.088c-0.108,0-0.163,0.059-0.163,0.178v0.772c0,0.148,0.055,0.209,0.163,0.209h0.867
			c0.759,0,1.273,0.416,1.49,1.159c0.163,0.505,0.298,3.417,0.325,4.576c0.054,1.485,0.082,2.941,0.082,5.587v3.536H329.33z"/>
		<path fill="#213C74" d="M338.567,391.924c-0.786,2.438-2.763,7.934-2.952,8.411c-0.379,0.95-0.758,1.366-1.571,1.366h-0.948
			c-0.108,0-0.217,0.059-0.217,0.207v0.714c0,0.178,0.055,0.238,0.189,0.238c0.379,0,0.976-0.09,2.953-0.09
			c1.598,0,2.709,0.09,3.088,0.09c0.135,0,0.216-0.061,0.216-0.268v-0.685c0-0.148-0.081-0.207-0.271-0.207h-1.273
			c-0.595,0-0.92-0.238-0.92-0.655c0-0.148,0.054-0.445,0.081-0.652c0.136-0.624,1.625-5.142,1.896-5.884h6.663
			c0.379,1.188,1.49,4.992,1.707,6.062c0.19,0.833-0.054,1.13-0.813,1.13h-0.677c-0.162,0-0.244,0.029-0.244,0.207v0.685
			c0,0.178,0.082,0.268,0.217,0.268c0.624,0,1.571-0.09,3.82-0.09c2.194,0,2.763,0.09,3.25,0.09c0.189,0,0.271-0.061,0.271-0.209
			v-0.743c0-0.117-0.054-0.207-0.217-0.207h-0.894c-0.677,0-1.382-0.356-1.842-1.337c-0.379-0.862-2.14-6.391-2.763-8.708
			c-0.515-1.902-2.627-8.559-3.142-10.431c-0.081-0.327-0.135-0.505-0.298-0.505c-0.136,0-0.217,0.118-0.352,0.267
			c-0.298,0.416-1.49,1.308-2.248,1.487c-0.19,0.059-0.244,0.178-0.244,0.266c0,0.119,0.108,0.268,0.189,0.387
			c0.189,0.327,0.054,0.714-0.027,1.011C340.951,384.939,338.757,391.329,338.567,391.924z M342.088,384.703
			c0.082-0.238,0.19-0.446,0.298-0.446c0.081,0,0.135,0.208,0.216,0.417c0.135,0.445,2.329,7.873,2.573,8.765h-5.986
			C339.38,392.695,341.953,385.088,342.088,384.703z"/>
		<path fill="#213C74" d="M369.853,397.659c-0.65-0.95-5.228-7.102-5.525-7.519c-0.298-0.416-5.553-7.904-5.688-8.083
			c-0.216-0.268-0.433-0.387-0.785-0.387c-0.325,0-0.894,0.059-1.815,0.059c-0.921,0-1.517-0.029-1.923-0.059
			c-0.407,0-0.623-0.029-0.759-0.029c-0.135,0-0.162,0.059-0.162,0.178v0.772c0,0.09,0.027,0.209,0.162,0.209l1.111,0.029
			c0.975,0.029,1.788,1.011,1.788,2.764v5.052c0,5.291-0.054,8.679-0.108,9.243c-0.135,1.456-0.433,1.813-1.219,1.813h-0.921
			c-0.135,0-0.163,0.09-0.163,0.178v0.772c0,0.148,0.027,0.209,0.136,0.209c0.271,0,2.139-0.09,2.708-0.09
			c0.731,0,2.356,0.09,2.627,0.09c0.19,0,0.217-0.061,0.217-0.238v-0.653c0-0.178-0.027-0.268-0.217-0.268h-0.812
			c-0.732,0-0.894-0.565-1.002-1.725c-0.054-0.594-0.271-5.438-0.271-8.201v-6.598h0.163c0.163,0.238,5.146,7.104,5.444,7.4
			c0.163,0.178,2.14,2.911,4.036,5.497c1.679,2.318,3.277,4.518,3.304,4.576c0.082,0.119,0.325,0.477,0.65,0.477
			c0.108,0,0.135-0.297,0.135-0.714V391.3c0-1.931,0-4.873,0.108-6.865c0.055-1.129,0.325-1.634,1.057-1.634h0.731
			c0.108,0,0.162-0.09,0.162-0.209v-0.743c0-0.119-0.027-0.207-0.217-0.207c-0.352,0-1.002,0.088-2.627,0.088
			c-1.733,0-2.6-0.088-2.979-0.088c-0.108,0-0.163,0.059-0.163,0.178v0.772c0,0.148,0.054,0.209,0.163,0.209h0.867
			c0.759,0,1.273,0.416,1.49,1.159c0.162,0.505,0.298,3.417,0.325,4.576c0.054,1.485,0.081,2.941,0.081,5.587v3.536H369.853z"/>
		<path fill="#213C74" d="M384.48,382.326c2.14,0,3.575,1.009,4.713,2.287s1.733,2.705,2.113,3.685
			c0.081,0.238,0.136,0.268,0.271,0.238l0.407-0.119c0.108-0.029,0.135-0.148,0.108-0.297c-0.136-0.833-0.677-5.2-0.677-5.765
			c0-0.417-0.054-0.478-0.298-0.478s-0.298,0-0.352,0.18l-0.217,0.862c-0.054,0.207-0.19,0.236-0.542,0
			c-0.976-0.625-3.007-1.636-5.472-1.636c-2.953,0-5.391,1.397-6.771,3.002c-1.95,2.258-2.763,5.112-2.763,7.876
			c0,2.852,0.949,6.3,2.898,8.321c1.625,1.634,3.657,2.732,6.853,2.732c3.82,0,6.447-2.406,8.072-4.992
			c0.082-0.148,0.027-0.207-0.054-0.268l-0.352-0.297c-0.082-0.089-0.136-0.06-0.217,0.09c-1.246,1.931-3.629,3.774-6.69,3.774
			c-1.815,0-3.359-0.238-5.201-2.496c-2.113-2.557-2.6-5.915-2.6-7.64C377.682,387.051,379.631,382.326,384.48,382.326z"/>
		<path fill="#213C74" d="M397.428,400.394c0,1.101-0.108,1.308-1.354,1.308h-1.083c-0.189,0-0.271,0.029-0.271,0.148v0.802
			c0,0.148,0.081,0.209,0.244,0.209c0.244,0,0.596-0.029,1.165-0.061c0.542,0,1.3-0.029,2.303-0.029
			c4.225,0,6.852,0.029,8.478,0.029c1.625,0.031,2.221,0.061,2.356,0.061c0.325,0,0.515-0.178,0.596-0.446l1.436-4.368
			c0.081-0.238,0.081-0.327-0.054-0.417l-0.434-0.268c-0.163-0.088-0.244,0.029-0.325,0.18c-0.379,0.683-1.896,2.823-2.221,3.12
			c-0.704,0.653-1.896,0.981-2.356,1.04c-0.569,0.059-1.923,0.09-2.384,0.09c-0.677,0-1.462-0.09-2.004-0.209
			c-0.84-0.178-1.517-0.772-1.544-2.318c0-0.595-0.054-3.476-0.054-5.08v-1.844c0.434,0,2.302,0,3.576,0.148
			c0.704,0.09,1.002,0.536,1.165,1.159c0.081,0.326,0.244,1.011,0.298,1.396c0.027,0.209,0.082,0.298,0.216,0.269l0.596-0.089
			c0.108-0.03,0.163-0.09,0.163-0.238c-0.054-0.623-0.163-2.05-0.163-3.09c0-0.446,0-2.884,0.081-3.388
			c0.027-0.119-0.027-0.238-0.162-0.238l-0.677-0.029c-0.108,0-0.189,0.059-0.189,0.207c-0.027,0.564-0.135,1.159-0.217,1.456
			c-0.244,0.923-0.46,1.159-1.246,1.308c-0.325,0.061-3.223,0.178-3.44,0.178v-8.706l4.821,0.119
			c0.731,0.029,1.49,0.386,2.059,0.802c0.65,0.445,2.654,3.27,2.708,3.388c0.027,0.061,0.135,0.148,0.216,0.09l0.406-0.238
			c0.108-0.06,0.108-0.149,0.081-0.267c-0.081-0.297-1.273-4.368-1.381-4.785c-0.027-0.09-0.082-0.148-0.217-0.148
			c-0.136,0-0.65,0.059-1.083,0.059c-2.682,0-5.363,0.029-8.044,0.029h-1.192c-1.788,0-2.736-0.088-3.332-0.088
			c-0.135,0-0.19,0.059-0.19,0.148v0.802c0,0.18,0.082,0.209,0.217,0.209h0.975c1.002,0,1.273,0.207,1.382,1.159
			c0.027,0.297,0.081,4.011,0.081,6.478v2.913V400.394z"/>
		<path fill="#213C74" d="M413.165,407.794c0,0.178,0.108,0.266,0.325,0.266c0.189,0,0.379-0.178,0.542-0.266
			c0.542-0.357,3.169-2.467,3.169-5.589c0-1.87-1.408-2.852-2.356-2.852c-0.975,0-1.517,0.653-1.517,1.396
			c0,1.487,1.273,1.844,1.544,1.963c0.217,0.088,0.461,0.504,0.461,0.891c0,1.635-1.273,3.091-1.923,3.745
			C413.192,407.556,413.165,407.614,413.165,407.794z"/>
		<path fill="#213C74" d="M439.954,382.326c2.139,0,3.574,1.009,4.713,2.287c1.138,1.278,1.734,2.705,2.112,3.685
			c0.081,0.238,0.135,0.268,0.271,0.238l0.406-0.119c0.108-0.029,0.135-0.148,0.108-0.297c-0.137-0.833-0.677-5.2-0.677-5.765
			c0-0.417-0.056-0.478-0.299-0.478c-0.244,0-0.298,0-0.353,0.18l-0.216,0.862c-0.054,0.207-0.19,0.236-0.543,0
			c-0.975-0.625-3.006-1.636-5.471-1.636c-2.952,0-5.39,1.397-6.771,3.002c-1.95,2.258-2.763,5.112-2.763,7.876
			c0,2.852,0.948,6.3,2.899,8.321c1.623,1.634,3.655,2.732,6.853,2.732c3.817,0,6.445-2.406,8.07-4.992
			c0.081-0.148,0.028-0.207-0.054-0.268l-0.352-0.297c-0.082-0.089-0.135-0.06-0.218,0.09c-1.246,1.931-3.63,3.774-6.689,3.774
			c-1.815,0-3.359-0.238-5.201-2.496c-2.112-2.557-2.6-5.915-2.6-7.64C433.155,387.051,435.105,382.326,439.954,382.326z"/>
		<path fill="#213C74" d="M453.688,401.285c2.139,1.456,4.497,1.931,5.823,1.931c3.738,0,6.148-1.782,7.802-4.188
			c1.407-2.082,2.031-4.34,2.031-6.51c0-4.101-1.734-7.014-3.711-8.886c-2.141-1.961-4.361-2.348-6.068-2.348
			c-2.275,0-4.956,0.594-7.34,3.774c-2.085,2.764-2.519,5.587-2.519,7.4C449.706,396.797,451.765,400.007,453.688,401.285z
			 M455.177,384.167c2.031-2.109,3.873-1.753,4.28-1.753c3.006,0,7.231,3.833,7.231,10.342c0,2.646-1.002,9.332-6.962,9.332
			c-2.301,0-7.259-2.764-7.259-10.581C452.468,389.071,453.363,386.069,455.177,384.167z"/>
		<path fill="#213C74" d="M487.465,397.659c-0.649-0.95-5.228-7.102-5.524-7.519c-0.299-0.416-5.554-7.904-5.688-8.083
			c-0.218-0.268-0.434-0.387-0.786-0.387c-0.325,0-0.894,0.059-1.814,0.059c-0.922,0-1.517-0.029-1.924-0.059
			c-0.406,0-0.622-0.029-0.759-0.029c-0.135,0-0.162,0.059-0.162,0.178v0.772c0,0.09,0.027,0.209,0.162,0.209l1.111,0.029
			c0.976,0.029,1.788,1.011,1.788,2.764v5.052c0,5.291-0.054,8.679-0.109,9.243c-0.135,1.456-0.434,1.813-1.218,1.813h-0.921
			c-0.136,0-0.162,0.09-0.162,0.178v0.772c0,0.148,0.026,0.209,0.135,0.209c0.271,0,2.141-0.09,2.709-0.09
			c0.73,0,2.355,0.09,2.627,0.09c0.19,0,0.216-0.061,0.216-0.238v-0.653c0-0.178-0.025-0.268-0.216-0.268h-0.813
			c-0.73,0-0.894-0.565-1.002-1.725c-0.054-0.594-0.271-5.438-0.271-8.201v-6.598h0.164c0.163,0.238,5.146,7.104,5.443,7.4
			c0.162,0.178,2.141,2.911,4.035,5.497c1.682,2.318,3.279,4.518,3.305,4.576c0.081,0.119,0.327,0.477,0.651,0.477
			c0.107,0,0.135-0.297,0.135-0.714V391.3c0-1.931,0-4.873,0.109-6.865c0.053-1.129,0.324-1.634,1.055-1.634h0.732
			c0.107,0,0.163-0.09,0.163-0.209v-0.743c0-0.119-0.028-0.207-0.218-0.207c-0.353,0-1.002,0.088-2.628,0.088
			c-1.732,0-2.6-0.088-2.978-0.088c-0.109,0-0.163,0.059-0.163,0.178v0.772c0,0.148,0.054,0.209,0.163,0.209h0.865
			c0.759,0,1.273,0.416,1.491,1.159c0.162,0.505,0.297,3.417,0.324,4.576c0.054,1.485,0.081,2.941,0.081,5.587v3.536H487.465z"/>
		<path fill="#213C74" d="M508.999,380.66c-0.108,0-0.189,0.029-0.324,0.119l-0.516,0.356c-0.461,0.297-0.812,0.387-1.407,0.416
			c-1.329,0.061-2.493,0.178-5.445,0.178h-1.301c-2.545,0-3.683-0.117-5.118-0.178c-0.786-0.029-1.058-0.119-1.545-0.504
			l-0.352-0.269c-0.107-0.09-0.188-0.119-0.325-0.119c-0.107,0-0.216,0.09-0.271,0.476c-0.054,0.328-1.002,4.161-1.272,5.23
			c-0.054,0.178,0.027,0.209,0.108,0.238l0.487,0.148c0.137,0.029,0.218,0,0.271-0.148c0.38-0.951,1.191-3.031,2.411-3.448
			c1.056-0.355,3.412-0.355,4.279-0.355h0.677v7.637c0,0.565,0,9.688-0.081,10.55c-0.027,0.357-0.353,0.714-0.894,0.714h-1.843
			c-0.162,0-0.188,0.09-0.188,0.297v0.565c0,0.178,0.026,0.297,0.243,0.297c0.379,0,1.518-0.09,4.117-0.09
			c2.655,0,3.521,0.09,3.792,0.09c0.243,0,0.271-0.09,0.271-0.238v-0.624c0-0.207-0.027-0.297-0.271-0.297h-1.707
			c-0.649,0-0.865-0.446-0.921-1.188c-0.025-0.506-0.025-8.827-0.025-9.242v-8.47h0.758c1.327,0,3.873,0.059,4.685,0.505
			c0.896,0.475,1.707,2.764,1.925,3.328c0.081,0.208,0.107,0.238,0.216,0.208l0.434-0.118c0.135-0.031,0.19-0.09,0.162-0.238
			c-0.218-1.308-0.73-4.992-0.785-5.35C509.189,380.75,509.134,380.66,508.999,380.66z"/>
		<path fill="#213C74" d="M513.874,400.69c0,0.804-0.46,1.011-1.056,1.011h-1.11c-0.135,0-0.135,0.09-0.135,0.238v0.683
			c0,0.148,0,0.238,0.216,0.238c0.299,0,0.921-0.09,3.386-0.09c2.574,0,3.251,0.09,3.548,0.09c0.271,0,0.299-0.061,0.299-0.268
			v-0.653c0-0.148-0.027-0.238-0.217-0.238h-1.707c-0.406,0-0.622-0.536-0.678-1.159c-0.025-0.446-0.053-3.774-0.053-5.528v-1.663
			c0.378-0.09,0.649-0.09,0.893-0.09c1.572,0,2.222,0.803,2.927,1.724c0.324,0.417,1.625,2.557,1.732,2.765
			c0.137,0.238,1.598,3.061,1.815,3.416c0.243,0.388,0.84,1.398,1.137,1.695c0.407-0.029,1.409-0.09,2.193-0.09
			c1.192,0,1.897,0.09,2.113,0.09c0.189,0,0.218-0.09,0.218-0.268v-0.653c0-0.119-0.028-0.238-0.218-0.238
			c-0.759,0-1.381-0.059-1.95-0.506c-0.514-0.415-2.248-3.12-2.383-3.417c-0.218-0.388-2.14-3.417-2.465-3.805
			c-0.218-0.326-0.596-0.861-1.245-1.129v-0.06c3.467-0.832,5.01-2.228,5.01-5.943c0-1.099-0.516-2.437-1.408-3.388
			c-1.029-1.069-2.817-1.813-5.064-1.813c-0.487,0-3.008,0.088-4.524,0.088c-2.275,0-3.115-0.088-3.358-0.088
			c-0.135,0-0.162,0.059-0.162,0.207v0.743c0,0.119,0.027,0.209,0.162,0.209h1.083c0.677,0,1.002,0.505,1.029,1.485
			c0.028,0.862,0.028,2.765,0.028,4.963v2.884C513.93,394.955,513.93,397.749,513.874,400.69z M516.367,383.78
			c0-0.475,0.135-0.802,0.324-0.95c0.244-0.178,0.596-0.238,0.921-0.238c2.249,0,3.439,0.445,4.496,1.368
			c0.786,0.714,1.354,2.02,1.354,3.388c0,1.247-0.948,4.963-5.878,4.963c-0.514,0-0.813-0.029-1.218-0.119V383.78z"/>
		<path fill="#213C74" d="M539.364,381.284c-2.274,0-4.958,0.594-7.34,3.774c-2.087,2.764-2.521,5.587-2.521,7.4
			c0,4.338,2.06,7.548,3.982,8.826c2.14,1.456,4.496,1.931,5.823,1.931c3.737,0,6.149-1.782,7.801-4.188
			c1.409-2.082,2.031-4.34,2.031-6.51c0-4.101-1.732-7.014-3.71-8.886C543.291,381.671,541.071,381.284,539.364,381.284z
			 M539.526,402.088c-2.302,0-7.259-2.764-7.259-10.581c0-2.436,0.894-5.438,2.709-7.34c2.031-2.109,3.873-1.753,4.279-1.753
			c3.007,0,7.232,3.833,7.232,10.342C546.488,395.401,545.484,402.088,539.526,402.088z"/>
		<path fill="#213C74" d="M553.72,400.897c0,0.388-0.162,0.804-1.164,0.804h-1.3c-0.164,0-0.189,0.059-0.189,0.207v0.743
			c0,0.148,0.025,0.209,0.216,0.209s0.515-0.029,1.058-0.061c0.568,0,1.354-0.029,2.409-0.029c1.463,0,4.118,0,6.528,0.029
			c2.41,0,4.524,0.031,4.875,0.061c0.162-0.804,1.247-5.706,1.328-5.915c0.026-0.178,0.026-0.207-0.055-0.266l-0.434-0.18
			c-0.107-0.06-0.163,0-0.217,0.119c-0.38,1.159-2.004,4.726-3.602,4.992c-0.84,0.119-6.203,0.061-6.799,0
			c-0.081-1.218-0.081-7.638-0.081-8.142v-2.557c0-2.08,0.081-6.567,0.081-6.953c0-0.862,0.108-1.159,0.948-1.159h1.625
			c0.216,0,0.27-0.09,0.27-0.238v-0.685c0-0.148-0.025-0.236-0.243-0.236c-0.244,0-1.38,0.088-4.008,0.088
			c-2.249,0-3.224-0.088-3.522-0.088c-0.162,0-0.188,0.059-0.188,0.207v0.655c0,0.148,0.026,0.297,0.188,0.297h1.273
			c0.813,0,0.948,0.297,1.002,1.069c0.027,0.535,0.081,3.685,0.081,5.587v1.665C553.801,392.935,553.72,400.335,553.72,400.897z"/>
		<path fill="#213C74" d="M587.893,388.792h-1.071c-0.123,0-0.214,0.1-0.308,0.234l-0.582,0.907
			c-0.306-0.537-0.888-1.142-2.175-1.142c-3.736,0-8.762,7.259-8.762,12.164c0,1.512,0.95,2.151,1.655,2.151
			c2.175,0,5.269-3.597,6.556-5.747l0.153,0.067c-1.164,3.562-1.472,4.604-1.472,5.107c0,0.438,0.276,0.572,0.645,0.572
			c1.746,0,4.411-2.857,4.748-3.529c0.061-0.101,0.03-0.168-0.062-0.268l-0.275-0.337c-0.062-0.101-0.153-0.033-0.245,0.067
			c-0.214,0.302-1.777,2.05-2.146,2.05c-0.183,0-0.337-0.102-0.337-0.404c0-0.302,1.287-4.469,1.472-5.04
			c0.152-0.537,1.716-5.176,2.298-6.553C588.046,388.959,588.015,388.792,587.893,388.792z M584.033,394.639
			c-0.551,1.242-4.443,6.688-5.974,6.688c-0.521,0-0.827-0.404-0.827-1.177c0-3.192,3.276-10.283,6.096-10.283
			c1.134,0,1.439,1.076,1.439,1.983C584.768,392.823,584.462,393.663,584.033,394.639z"/>
		<path fill="#213C74" d="M589.274,402.468c-0.061,0.235,0,0.303,0.337,0.303h1.195c0.306,0,0.368-0.067,0.428-0.2l0.766-2.253
			c0.797-2.353,1.287-3.226,1.838-4.199c1.35-2.388,4.381-5.479,5.576-5.479c0.552,0,0.766,0.303,0.766,0.772
			c0,0.739-1.103,3.529-1.53,4.839c-0.95,2.89-2.053,5.545-2.053,6.185c0,0.504,0.337,0.672,0.734,0.672
			c2.052,0,4.534-2.386,4.902-2.925c0.123-0.168,0.092-0.235-0.031-0.37l-0.214-0.268c-0.092-0.135-0.214-0.169-0.337-0.067
			c-0.399,0.47-1.746,1.714-2.206,1.714c-0.245,0-0.368-0.235-0.368-0.438c0-0.537,0.736-2.42,1.562-4.636
			c1.013-2.723,1.718-4.471,1.718-5.949c0-0.873-0.613-1.377-1.532-1.377c-2.727,0-6.067,4.469-6.986,6.082l-0.121-0.067
			c0.244-0.773,1.563-3.966,1.563-5.008c0-0.438-0.277-1.007-0.981-1.007c-2.204,0-4.473,2.788-4.933,3.395
			c-0.091,0.133-0.06,0.2,0.063,0.335l0.274,0.302c0.123,0.135,0.215,0.135,0.308,0.035c0.521-0.64,1.99-2.253,2.572-2.253
			c0.337,0,0.46,0.235,0.46,0.572c0,0.571-0.857,2.99-1.593,5.073L589.274,402.468z"/>
		<path fill="#213C74" d="M614.918,389.9c-0.521-0.672-1.104-1.108-1.93-1.108c-2.054,0-3.829,1.679-4.811,2.721
			c-2.512,2.723-4.227,6.722-4.227,9.376c0,1.444,0.919,2.219,1.96,2.219c2.084,0,4.963-3.093,6.464-5.713l0.246,0.067
			c-0.674,1.914-1.35,4.199-1.35,4.871c0,0.606,0.339,0.774,0.828,0.774c1.623,0,4.258-2.688,4.472-2.992
			c0.094-0.133,0.094-0.268,0-0.335l-0.306-0.337c-0.092-0.133-0.214-0.133-0.337-0.033c-0.153,0.202-1.624,1.748-2.144,1.748
			c-0.43,0-0.399-0.504-0.123-1.546c0.521-2.018,5.883-17.744,6.342-18.919c0.123-0.27,0.061-0.606-0.368-0.606h-3.768
			c-0.276,0-0.337,0.067-0.368,0.202l-0.185,0.707c-0.029,0.1,0,0.234,0.245,0.234h0.95c0.828,0,0.981,0.672,0.766,1.31
			L614.918,389.9z M611.947,396.79c-1.227,1.849-3.585,4.604-4.871,4.604c-0.429,0-0.889-0.37-0.889-1.076
			c0-3.092,3.246-10.451,6.126-10.451c0.981,0,1.624,0.639,1.624,2.218C613.938,393.396,612.804,395.512,611.947,396.79z"/>
		<path fill="#213C74" d="M220.927,432.076h-1.273c-0.596,0-0.921-0.238-0.921-0.654c0-0.148,0.054-0.445,0.082-0.653
			c0.135-0.623,1.625-5.141,1.896-5.884h6.664c0.379,1.189,1.49,4.993,1.706,6.063c0.19,0.832-0.054,1.129-0.812,1.129h-0.677
			c-0.163,0-0.244,0.03-0.244,0.208v0.684c0,0.178,0.082,0.268,0.217,0.268c0.623,0,1.571-0.09,3.819-0.09
			c2.194,0,2.763,0.09,3.25,0.09c0.189,0,0.271-0.06,0.271-0.209v-0.742c0-0.118-0.054-0.208-0.217-0.208h-0.894
			c-0.677,0-1.381-0.355-1.842-1.337c-0.379-0.861-2.14-6.39-2.763-8.708c-0.514-1.901-2.627-8.558-3.142-10.43
			c-0.081-0.327-0.136-0.505-0.298-0.505c-0.136,0-0.217,0.117-0.352,0.266c-0.298,0.417-1.49,1.308-2.249,1.487
			c-0.189,0.06-0.244,0.179-0.244,0.267c0,0.119,0.108,0.268,0.19,0.387c0.189,0.326,0.054,0.714-0.027,1.011
			c-0.244,0.802-2.438,7.191-2.627,7.785c-0.786,2.438-2.763,7.935-2.952,8.411c-0.379,0.95-0.758,1.366-1.571,1.366h-0.948
			c-0.108,0-0.217,0.06-0.217,0.208v0.713c0,0.179,0.054,0.238,0.189,0.238c0.379,0,0.975-0.09,2.953-0.09
			c1.598,0,2.708,0.09,3.088,0.09c0.135,0,0.216-0.06,0.216-0.268v-0.684C221.198,432.136,221.117,432.076,220.927,432.076z
			 M223.961,415.078c0.081-0.238,0.189-0.445,0.298-0.445c0.081,0,0.135,0.207,0.216,0.416c0.136,0.446,2.33,7.874,2.574,8.766
			h-5.986C221.252,423.071,223.826,415.464,223.961,415.078z"/>
		<path fill="#213C74" d="M247.906,427.084c0-1.962-0.488-3.121-1.192-4.042c-0.976-1.308-2.492-1.813-4.361-2.467
			c-0.786-0.266-2.302-0.921-3.088-1.782c-0.677-0.772-0.839-1.754-0.839-2.587c0-1.515,0.867-3.476,3.277-3.476
			c1.273,0,2.221,0.417,2.952,1.277c1.111,1.278,1.463,2.438,1.68,3.299c0.027,0.09,0.081,0.119,0.163,0.09l0.325-0.09
			c0.108-0.029,0.135-0.09,0.135-0.238c-0.026-0.653-0.379-3.685-0.379-4.725c0-0.268-0.081-0.504-0.216-0.504
			c-0.136,0-0.217,0.059-0.353,0.178l-0.352,0.355c-0.136,0.148-0.271,0.178-0.515,0.029c-0.46-0.236-1.652-0.742-3.196-0.742
			c-1.462,0-2.816,0.416-3.792,1.427c-0.84,0.861-1.679,2.318-1.679,3.804c0,1.962,0.46,3.358,1.354,4.339
			c1.165,1.338,3.115,2.08,3.955,2.407c2.167,0.832,4.171,1.962,4.171,5.023c0,2.674-2.059,3.772-3.684,3.772
			c-1.49,0-2.979-0.802-3.792-2.199c-0.894-1.515-0.948-2.496-0.975-3.446c0-0.178-0.054-0.238-0.163-0.238l-0.406-0.029
			c-0.108,0-0.163,0-0.19,0.178c-0.081,0.862-0.352,4.637-0.46,5.379c-0.054,0.327,0.081,0.476,0.244,0.476
			c0.19,0,0.325-0.029,0.488-0.355c0.162-0.298,0.271-0.507,0.433-0.507c0.136,0,0.298,0.09,0.623,0.357
			c1.083,0.921,2.411,1.545,4.307,1.545C245.956,433.592,247.906,430.591,247.906,427.084z"/>
		<path fill="#213C74" d="M262.316,427.084c0-1.962-0.487-3.121-1.192-4.042c-0.975-1.308-2.492-1.813-4.361-2.467
			c-0.786-0.266-2.302-0.921-3.088-1.782c-0.677-0.772-0.839-1.754-0.839-2.587c0-1.515,0.867-3.476,3.277-3.476
			c1.273,0,2.221,0.417,2.952,1.277c1.111,1.278,1.463,2.438,1.68,3.299c0.027,0.09,0.081,0.119,0.162,0.09l0.325-0.09
			c0.108-0.029,0.135-0.09,0.135-0.238c-0.027-0.653-0.379-3.685-0.379-4.725c0-0.268-0.081-0.504-0.216-0.504
			s-0.217,0.059-0.352,0.178l-0.352,0.355c-0.136,0.148-0.271,0.178-0.515,0.029c-0.46-0.236-1.652-0.742-3.196-0.742
			c-1.462,0-2.817,0.416-3.792,1.427c-0.84,0.861-1.68,2.318-1.68,3.804c0,1.962,0.46,3.358,1.354,4.339
			c1.165,1.338,3.115,2.08,3.955,2.407c2.167,0.832,4.171,1.962,4.171,5.023c0,2.674-2.059,3.772-3.684,3.772
			c-1.49,0-2.979-0.802-3.792-2.199c-0.894-1.515-0.948-2.496-0.975-3.446c0-0.178-0.054-0.238-0.163-0.238l-0.407-0.029
			c-0.108,0-0.162,0-0.189,0.178c-0.081,0.862-0.352,4.637-0.46,5.379c-0.054,0.327,0.081,0.476,0.244,0.476
			c0.189,0,0.325-0.029,0.487-0.355c0.163-0.298,0.271-0.507,0.434-0.507c0.135,0,0.298,0.09,0.623,0.357
			c1.083,0.921,2.411,1.545,4.307,1.545C260.366,433.592,262.316,430.591,262.316,427.084z"/>
		<path fill="#213C74" d="M282.035,413.177h1.111c0.135,0,0.162-0.119,0.162-0.298v-0.654c0-0.088-0.027-0.207-0.271-0.207
			s-1.111,0.088-2.979,0.088c-1.815,0-3.061-0.088-3.332-0.088c-0.162,0-0.189,0.059-0.189,0.207v0.714
			c0,0.148,0.027,0.238,0.189,0.238h1.192c0.705,0,1.138,0.533,1.219,1.308c0.082,0.742,0.136,2.467,0.136,4.725v6.358
			c0,2.199-0.352,3.983-1.408,5.231c-0.948,1.07-2.519,1.634-4.063,1.634c-1.571,0-3.305-0.534-4.307-2.139
			c-0.623-1.011-0.84-2.408-0.867-3.774c-0.027-0.952-0.136-4.725-0.136-6.3v-1.963c0-1.515,0.027-3.595,0.054-3.862
			c0.054-0.653,0.515-1.218,1.3-1.218h1.354c0.19,0,0.217-0.061,0.217-0.209v-0.772c0-0.119-0.027-0.178-0.244-0.178
			c-0.298,0-1.598,0.088-3.711,0.088c-2.112,0-3.44-0.088-3.711-0.088c-0.217,0-0.244,0.059-0.244,0.236v0.655
			c0,0.207,0.027,0.268,0.19,0.268h1.273c0.839,0,1.029,0.475,1.029,1.515v7.072c0,3.894,0.108,5.886,0.433,7.223
			c0.434,1.872,1.381,3.18,3.223,3.981c0.894,0.417,2.249,0.624,3.657,0.624c2.356,0,4.009-0.683,5.092-1.783
			c1.517-1.427,2.113-3.298,2.275-5.734c0.082-1.159,0.136-6.361,0.136-6.775c0-0.416,0-4.637,0.054-4.934
			C280.952,414.008,281.033,413.177,282.035,413.177z"/>
		<path fill="#213C74" d="M288.049,412.105c-2.275,0-3.115-0.088-3.358-0.088c-0.135,0-0.163,0.059-0.163,0.207v0.743
			c0,0.119,0.027,0.209,0.163,0.209h1.083c0.677,0,1.002,0.504,1.029,1.485c0.027,0.862,0.027,2.764,0.027,4.963v2.883
			c0,2.823,0,5.616-0.054,8.559c0,0.803-0.46,1.01-1.057,1.01h-1.11c-0.135,0-0.135,0.09-0.135,0.239v0.682
			c0,0.148,0,0.238,0.217,0.238c0.298,0,0.921-0.09,3.386-0.09c2.573,0,3.25,0.09,3.548,0.09c0.271,0,0.298-0.06,0.298-0.268v-0.652
			c0-0.149-0.027-0.239-0.217-0.239h-1.707c-0.406,0-0.623-0.535-0.677-1.158c-0.027-0.446-0.054-3.775-0.054-5.528v-1.663
			c0.379-0.09,0.65-0.09,0.894-0.09c1.571,0,2.221,0.803,2.925,1.724c0.325,0.416,1.625,2.557,1.733,2.764
			c0.136,0.238,1.598,3.062,1.815,3.417c0.244,0.387,0.839,1.397,1.137,1.694c0.407-0.029,1.409-0.09,2.194-0.09
			c0.534,0,0.956,0.02,1.294,0.038c0.031,0.037,0.076,0.052,0.142,0.052c0.104,0,0.227-0.007,0.386-0.017
			c0.13,0.01,0.232,0.017,0.291,0.017c0.071,0,0.114-0.017,0.146-0.041c0.445-0.024,1.096-0.049,2.129-0.049
			c1.598,0,2.709,0.09,3.088,0.09c0.135,0,0.216-0.06,0.216-0.268v-0.684c0-0.148-0.081-0.208-0.271-0.208h-1.273
			c-0.595,0-0.92-0.238-0.92-0.654c0-0.148,0.054-0.445,0.081-0.653c0.136-0.623,1.625-5.141,1.896-5.884h6.663
			c0.379,1.189,1.49,4.993,1.707,6.063c0.19,0.832-0.054,1.129-0.813,1.129h-0.677c-0.163,0-0.244,0.03-0.244,0.208v0.684
			c0,0.178,0.081,0.268,0.216,0.268c0.624,0,1.571-0.09,3.819-0.09c2.194,0,2.763,0.09,3.25,0.09c0.189,0,0.271-0.06,0.271-0.209
			v-0.742c0-0.118-0.054-0.208-0.217-0.208h-0.894c-0.677,0-1.381-0.355-1.842-1.337c-0.379-0.861-2.14-6.39-2.763-8.708
			c-0.515-1.901-2.627-8.558-3.142-10.43c-0.081-0.327-0.136-0.505-0.298-0.505c-0.135,0-0.217,0.117-0.352,0.266
			c-0.298,0.417-1.49,1.308-2.249,1.487c-0.189,0.06-0.243,0.179-0.243,0.267c0,0.119,0.108,0.268,0.189,0.387
			c0.189,0.326,0.054,0.714-0.027,1.011c-0.244,0.802-2.438,7.191-2.627,7.785c-0.786,2.438-2.763,7.935-2.952,8.411
			c-0.379,0.95-0.758,1.366-1.571,1.366h-0.298c-0.759,0-1.381-0.059-1.95-0.506c-0.515-0.414-2.249-3.119-2.383-3.417
			c-0.217-0.387-2.14-3.417-2.465-3.804c-0.217-0.326-0.596-0.862-1.246-1.13v-0.059c3.467-0.833,5.011-2.229,5.011-5.944
			c0-1.099-0.515-2.436-1.408-3.388c-1.03-1.069-2.817-1.812-5.065-1.812C292.084,412.018,289.565,412.105,288.049,412.105z
			 M310.423,415.078c0.081-0.238,0.189-0.445,0.298-0.445c0.082,0,0.135,0.207,0.216,0.416c0.136,0.446,2.33,7.874,2.574,8.766
			h-5.986C307.714,423.071,310.287,415.464,310.423,415.078z M296.364,417.724c0,1.247-0.948,4.963-5.877,4.963
			c-0.515,0-0.813-0.029-1.219-0.119v-8.411c0-0.476,0.135-0.802,0.325-0.95c0.244-0.178,0.596-0.238,0.921-0.238
			c2.248,0,3.44,0.445,4.496,1.368C295.795,415.049,296.364,416.355,296.364,417.724z"/>
		<path fill="#213C74" d="M326.973,412.434c-0.216-0.268-0.433-0.387-0.786-0.387c-0.325,0-0.893,0.059-1.814,0.059
			c-0.921,0-1.517-0.029-1.923-0.059c-0.406,0-0.623-0.029-0.758-0.029c-0.135,0-0.162,0.059-0.162,0.178v0.772
			c0,0.09,0.027,0.209,0.162,0.209l1.111,0.029c0.975,0.029,1.788,1.011,1.788,2.764v5.051c0,5.292-0.054,8.679-0.108,9.244
			c-0.135,1.456-0.433,1.812-1.219,1.812h-0.921c-0.135,0-0.162,0.09-0.162,0.179v0.771c0,0.149,0.027,0.209,0.136,0.209
			c0.271,0,2.139-0.09,2.708-0.09c0.731,0,2.356,0.09,2.627,0.09c0.189,0,0.217-0.06,0.217-0.238v-0.652
			c0-0.179-0.027-0.269-0.217-0.269h-0.813c-0.731,0-0.894-0.564-1.002-1.724c-0.054-0.594-0.271-5.438-0.271-8.202v-6.597h0.163
			c0.163,0.238,5.146,7.104,5.444,7.4c0.163,0.178,2.14,2.91,4.036,5.497c1.679,2.317,3.277,4.517,3.304,4.575
			c0.082,0.119,0.325,0.478,0.65,0.478c0.108,0,0.135-0.298,0.135-0.714v-11.114c0-1.932,0-4.873,0.108-6.865
			c0.055-1.13,0.325-1.634,1.056-1.634h0.732c0.108,0,0.162-0.09,0.162-0.209v-0.743c0-0.119-0.027-0.207-0.217-0.207
			c-0.352,0-1.002,0.088-2.627,0.088c-1.733,0-2.6-0.088-2.979-0.088c-0.108,0-0.162,0.059-0.162,0.178v0.772
			c0,0.148,0.054,0.209,0.162,0.209h0.867c0.759,0,1.273,0.416,1.49,1.159c0.162,0.504,0.298,3.417,0.325,4.576
			c0.054,1.485,0.081,2.941,0.081,5.586v3.536h-0.108c-0.65-0.95-5.228-7.102-5.525-7.518
			C332.363,420.101,327.108,412.611,326.973,412.434z"/>
		<path fill="#213C74" d="M346.097,414.662c-1.95,2.258-2.763,5.111-2.763,7.876c0,2.852,0.948,6.3,2.898,8.32
			c1.625,1.635,3.656,2.733,6.853,2.733c3.82,0,6.447-2.406,8.072-4.992c0.082-0.148,0.027-0.208-0.054-0.269l-0.352-0.297
			c-0.082-0.088-0.135-0.059-0.217,0.09c-1.246,1.932-3.629,3.774-6.69,3.774c-1.814,0-3.358-0.238-5.2-2.496
			c-2.113-2.557-2.601-5.915-2.601-7.639c-0.026-4.338,1.923-9.063,6.772-9.063c2.14,0,3.575,1.009,4.713,2.287
			s1.733,2.705,2.113,3.685c0.081,0.239,0.135,0.269,0.271,0.239l0.406-0.119c0.108-0.03,0.136-0.149,0.108-0.298
			c-0.135-0.832-0.677-5.199-0.677-5.765c0-0.416-0.054-0.477-0.298-0.477c-0.243,0-0.298,0-0.352,0.18l-0.217,0.862
			c-0.054,0.207-0.19,0.236-0.542,0c-0.975-0.626-3.006-1.636-5.471-1.636C349.916,411.66,347.478,413.058,346.097,414.662z"/>
		<path fill="#213C74" d="M366.628,412.105c-1.788,0-2.736-0.088-3.332-0.088c-0.136,0-0.19,0.059-0.19,0.148v0.802
			c0,0.18,0.082,0.209,0.217,0.209h0.975c1.002,0,1.273,0.207,1.382,1.159c0.027,0.297,0.081,4.011,0.081,6.478v2.913v7.042
			c0,1.101-0.108,1.308-1.354,1.308h-1.083c-0.189,0-0.271,0.03-0.271,0.149v0.801c0,0.149,0.082,0.209,0.244,0.209
			c0.244,0,0.596-0.029,1.165-0.06c0.542,0,1.3-0.03,2.303-0.03c4.225,0,6.852,0.03,8.477,0.03c1.626,0.03,2.221,0.06,2.357,0.06
			c0.325,0,0.515-0.178,0.596-0.445l1.436-4.369c0.081-0.238,0.081-0.326-0.054-0.416l-0.434-0.268
			c-0.163-0.088-0.244,0.029-0.325,0.18c-0.379,0.683-1.896,2.822-2.221,3.12c-0.704,0.652-1.896,0.98-2.356,1.039
			c-0.569,0.06-1.923,0.09-2.384,0.09c-0.677,0-1.462-0.09-2.004-0.209c-0.84-0.178-1.517-0.771-1.544-2.317
			c0-0.595-0.054-3.476-0.054-5.081v-1.843c0.434,0,2.302,0,3.576,0.148c0.704,0.09,1.002,0.535,1.165,1.159
			c0.081,0.326,0.244,1.011,0.298,1.396c0.027,0.209,0.082,0.297,0.216,0.268l0.596-0.088c0.108-0.031,0.163-0.09,0.163-0.238
			c-0.054-0.624-0.163-2.051-0.163-3.091c0-0.445,0-2.883,0.081-3.387c0.027-0.12-0.027-0.239-0.162-0.239l-0.677-0.029
			c-0.108,0-0.189,0.059-0.189,0.208c-0.027,0.564-0.135,1.159-0.217,1.456c-0.244,0.922-0.46,1.159-1.246,1.308
			c-0.325,0.061-3.223,0.178-3.44,0.178v-8.706l4.821,0.119c0.731,0.029,1.49,0.385,2.059,0.802c0.65,0.445,2.654,3.27,2.709,3.387
			c0.027,0.061,0.135,0.148,0.216,0.09l0.406-0.238c0.108-0.059,0.108-0.148,0.081-0.266c-0.081-0.297-1.273-4.369-1.381-4.785
			c-0.027-0.09-0.082-0.148-0.217-0.148c-0.136,0-0.65,0.059-1.083,0.059c-2.682,0-5.363,0.029-8.044,0.029H366.628z"/>
		<path fill="#213C74" d="M396.468,429.146c0,2.556,1.47,4.336,3.155,4.336c4.442,0,7.108-6.687,7.108-10.384
			c0-2.285-1.226-3.932-3.278-3.932C399.378,419.167,396.468,424.913,396.468,429.146z M405.505,422.595
			c0,2.218-3.155,9.274-6.342,9.274c-0.735,0-1.409-0.639-1.409-1.714c0-1.578,0.736-3.629,1.777-5.442
			c1.532-2.723,3.156-3.999,4.442-3.999C404.984,420.714,405.536,421.553,405.505,422.595z"/>
		<path fill="#213C74" d="M416.199,421.485c0.398,0,0.551,0.135,0.797,0.402c0.245,0.27,0.49,0.337,0.766,0.337
			c0.582,0,1.195-0.672,1.195-1.546c0-0.907-0.551-1.512-1.44-1.512c-1.716,0-4.167,4.133-4.994,6.016l-0.153-0.067
			c0.613-2.251,1.134-4.134,1.103-4.771c0-0.606-0.245-1.177-0.857-1.177c-2.083,0-3.921,2.286-4.565,3.327
			c-0.062,0.101-0.062,0.201,0,0.268l0.306,0.337c0.062,0.067,0.184,0.101,0.246,0c0.429-0.571,1.807-2.083,2.42-2.083
			c0.275,0,0.521,0.2,0.521,0.503c0,0.472-0.95,3.999-1.501,5.882l-1.716,5.443c-0.061,0.167,0.062,0.302,0.276,0.302h1.225
			c0.245,0,0.337,0,0.398-0.234l1.011-3.395c0.459-1.512,0.827-2.284,1.195-2.923C413.656,424.376,415.372,421.485,416.199,421.485z
			"/>
		<path fill="#213C74" d="M433.737,431.215c-0.109,0.771-0.678,0.861-1.22,0.861h-1.517c-0.137,0-0.218,0.06-0.218,0.179v0.803
			c0,0.118,0.081,0.178,0.218,0.178c0.297,0,1.463-0.09,4.035-0.09c2.356,0,3.439,0.09,3.766,0.09c0.163,0,0.244-0.06,0.244-0.178
			v-0.773c0-0.148-0.081-0.208-0.218-0.208h-1.111c-0.865,0-1.272-0.148-1.272-1.068c0-0.329-0.081-7.193-0.081-7.49v-2.288
			c0-0.357,0.081-6.925,0.081-7.222c0-0.595,0.407-0.831,0.948-0.831h1.273c0.136,0,0.217-0.061,0.217-0.209v-0.743
			c0-0.119-0.055-0.207-0.189-0.207c-0.38,0-1.246,0.088-3.657,0.088c-2.519,0-3.9-0.088-4.226-0.088
			c-0.108,0-0.189,0.059-0.189,0.178v0.804c0,0.117,0.081,0.178,0.218,0.178h1.57c1.029,0,1.301,0.297,1.354,1.011
			c0.028,0.445,0.109,5.794,0.109,6.507v2.08C433.872,424.35,433.791,430.769,433.737,431.215z"/>
		<path fill="#213C74" d="M457.545,433.026c0.081,0.119,0.326,0.478,0.651,0.478c0.107,0,0.135-0.298,0.135-0.714v-11.114
			c0-1.932,0-4.873,0.108-6.865c0.054-1.13,0.325-1.634,1.056-1.634h0.732c0.107,0,0.163-0.09,0.163-0.209v-0.743
			c0-0.119-0.028-0.207-0.218-0.207c-0.353,0-1.002,0.088-2.628,0.088c-1.732,0-2.6-0.088-2.979-0.088
			c-0.108,0-0.162,0.059-0.162,0.178v0.772c0,0.148,0.054,0.209,0.162,0.209h0.866c0.758,0,1.272,0.416,1.49,1.159
			c0.163,0.504,0.298,3.417,0.325,4.576c0.054,1.485,0.081,2.941,0.081,5.586v3.536h-0.108c-0.65-0.95-5.228-7.102-5.524-7.518
			c-0.3-0.416-5.555-7.905-5.689-8.083c-0.217-0.268-0.434-0.387-0.785-0.387c-0.325,0-0.894,0.059-1.814,0.059
			c-0.922,0-1.517-0.029-1.924-0.059c-0.406,0-0.622-0.029-0.759-0.029c-0.135,0-0.162,0.059-0.162,0.178v0.772
			c0,0.09,0.027,0.209,0.162,0.209l1.111,0.029c0.976,0.029,1.787,1.011,1.787,2.764v5.051c0,5.292-0.053,8.679-0.108,9.244
			c-0.135,1.456-0.434,1.812-1.218,1.812h-0.921c-0.137,0-0.162,0.09-0.162,0.179v0.771c0,0.149,0.025,0.209,0.135,0.209
			c0.271,0,2.14-0.09,2.708-0.09c0.731,0,2.356,0.09,2.628,0.09c0.189,0,0.216-0.06,0.216-0.238v-0.652
			c0-0.179-0.026-0.269-0.216-0.269h-0.813c-0.731,0-0.894-0.564-1.002-1.724c-0.054-0.594-0.271-5.438-0.271-8.202v-6.597h0.164
			c0.162,0.238,5.146,7.104,5.443,7.4c0.162,0.178,2.141,2.91,4.035,5.497C455.921,430.769,457.52,432.968,457.545,433.026z"/>
		<path fill="#213C74" d="M469.762,432.076h-1.327c-0.921,0-1.055-0.148-1.055-0.951c0-0.446-0.028-5.438-0.028-6.33v-1.099
			c0.434,0,2.41,0,3.684,0.179c0.596,0.088,0.92,0.445,1.11,1.159c0.081,0.326,0.271,1.218,0.299,1.456
			c0.026,0.148,0.054,0.236,0.188,0.207l0.515-0.119c0.137-0.029,0.19-0.088,0.19-0.236c-0.054-0.595-0.135-2.021-0.135-3.091
			c0-0.416,0-2.883,0.053-3.39c0-0.117-0.053-0.207-0.162-0.207l-0.542-0.029c-0.107,0-0.163,0.088-0.188,0.207
			c-0.081,0.536-0.19,1.159-0.271,1.457c-0.243,0.922-0.596,1.188-1.191,1.308c-0.325,0.061-3.17,0.148-3.549,0.148v-1.485
			c0-1.813,0.028-7.786,0.028-8.173c0.812,0,5.118,0.09,5.795,0.268c0.786,0.207,1.436,0.714,1.897,1.397
			c0.784,1.157,1.488,2.258,1.732,2.732c0.081,0.179,0.137,0.239,0.218,0.209l0.486-0.209c0.054-0.029,0.082-0.088,0.054-0.207
			c-0.189-0.772-1.002-4.785-1.083-5.289c-0.434,0.148-9.939,0.117-10.4,0.117c-1.301,0-2.222-0.029-2.844-0.059
			c-0.624,0-0.948-0.029-1.11-0.029c-0.109,0-0.19,0.059-0.19,0.178v0.804c0,0.117,0.081,0.178,0.19,0.178h1.569
			c0.732,0,1.111,0.297,1.111,0.861c0,0.356,0.054,4.547,0.054,5.854v2.08c0,5.111-0.054,8.855-0.107,9.449
			c-0.027,0.535-0.243,0.654-0.948,0.654h-1.22c-0.107,0-0.188,0.03-0.188,0.149v0.801c0,0.149,0.054,0.209,0.163,0.209
			c0.405,0,1.435-0.09,3.548-0.09c2.328,0,3.411,0.09,3.683,0.09c0.162,0,0.218-0.06,0.218-0.238v-0.742
			C470.007,432.136,469.926,432.076,469.762,432.076z"/>
		<path fill="#213C74" d="M480.651,415.435c-2.087,2.764-2.521,5.586-2.521,7.4c0,4.338,2.06,7.547,3.982,8.825
			c2.14,1.456,4.496,1.932,5.823,1.932c3.738,0,6.149-1.783,7.801-4.189c1.41-2.081,2.031-4.339,2.031-6.509
			c0-4.101-1.732-7.014-3.71-8.886c-2.141-1.961-4.36-2.348-6.067-2.348C485.717,411.66,483.033,412.254,480.651,415.435z
			 M495.115,423.132c0,2.645-1.003,9.332-6.961,9.332c-2.303,0-7.259-2.765-7.259-10.581c0-2.436,0.893-5.438,2.708-7.34
			c2.031-2.109,3.873-1.753,4.279-1.753C490.891,412.79,495.115,416.623,495.115,423.132z"/>
		<path fill="#213C74" d="M503.621,412.105c-2.274,0-3.114-0.088-3.357-0.088c-0.137,0-0.164,0.059-0.164,0.207v0.743
			c0,0.119,0.027,0.209,0.164,0.209h1.083c0.677,0,1.002,0.504,1.029,1.485c0.026,0.862,0.026,2.764,0.026,4.963v2.883
			c0,2.823,0,5.616-0.054,8.559c0,0.803-0.462,1.01-1.058,1.01h-1.11c-0.135,0-0.135,0.09-0.135,0.239v0.682
			c0,0.148,0,0.238,0.218,0.238c0.297,0,0.92-0.09,3.384-0.09c2.574,0,3.251,0.09,3.55,0.09c0.27,0,0.297-0.06,0.297-0.268v-0.652
			c0-0.149-0.027-0.239-0.216-0.239h-1.706c-0.406,0-0.624-0.535-0.678-1.158c-0.027-0.446-0.055-3.775-0.055-5.528v-1.663
			c0.38-0.09,0.65-0.09,0.895-0.09c1.57,0,2.222,0.803,2.925,1.724c0.324,0.416,1.625,2.557,1.734,2.764
			c0.135,0.238,1.598,3.062,1.813,3.417c0.243,0.387,0.84,1.397,1.139,1.694c0.405-0.029,1.407-0.09,2.193-0.09
			c0.9,0,1.521,0.053,1.864,0.076c0.034,0.009,0.077,0.014,0.14,0.014c0.018,0,0.047-0.001,0.069-0.001
			c0.011,0,0.031,0.001,0.04,0.001c0.012,0,0.019-0.003,0.03-0.005c0.384-0.018,1.36-0.085,3.355-0.085
			c2.247,0,2.979,0.09,3.276,0.09c0.218,0,0.244-0.09,0.244-0.209v-0.742c0-0.118-0.026-0.208-0.188-0.208h-1.354
			c-0.867,0-1.11-0.475-1.247-2.169c-0.081-1.04-0.054-7.311-0.054-7.667c0-0.357,0.054-7.875,0.162-8.292
			c0.381,0.356,2.844,7.014,3.358,8.38c0.137,0.358,3.604,9.748,3.685,9.956c0.107,0.297,0.244,0.535,0.406,0.535
			c0.216,0,0.434-0.445,0.542-0.713c0.107-0.269,3.115-7.845,3.277-8.202c0.135-0.297,3.981-9.658,4.253-10.046h0.054
			c0.081,0.269,0.081,5.558,0.081,7.521v1.901c0,2.199-0.027,7.369-0.054,7.728c-0.055,0.891-0.299,1.068-0.758,1.068h-1.844
			c-0.188,0-0.216,0.06-0.216,0.208v0.684c0,0.178,0.027,0.268,0.216,0.268c0.353,0,1.41-0.09,3.901-0.09
			c2.979,0,3.467,0.09,3.791,0.09c0.218,0,0.244-0.09,0.244-0.268v-0.684c0-0.118-0.026-0.208-0.188-0.208h-1.598
			c-0.678,0-0.923-0.475-0.923-1.604c0-0.594-0.081-5.408-0.081-6.895v-2.079c0-1.992,0.081-6.241,0.081-7.104
			c0-0.685,0.083-1.218,0.895-1.218h1.192c0.189,0,0.216-0.09,0.216-0.268v-0.685c0-0.119-0.026-0.207-0.162-0.207
			c-0.298,0-1.218,0.088-4.821,0.088c-0.271,0-0.568,0.031-0.622,0.357c-0.081,0.595-3.035,7.578-3.224,7.995
			c-0.218,0.385-2.927,7.488-3.305,7.934l-6.013-15.87c-0.137-0.385-0.299-0.504-0.705-0.504c-0.325,0-1.029,0.088-2.303,0.088
			c-2.301,0-3.033-0.088-3.305-0.088c-0.162,0-0.188,0.088-0.188,0.178v0.772c0,0.119,0.026,0.209,0.188,0.209h1.653
			c1.11,0,1.083,0.416,1.11,1.099c0.027,0.861,0.027,5.35,0.027,5.766c0,0.534-0.082,8.142-0.407,10.253
			c-0.162,1.011-0.406,1.782-1.436,1.782h-1.245c-0.759,0-1.383-0.059-1.951-0.506c-0.515-0.414-2.247-3.119-2.384-3.417
			c-0.216-0.387-2.14-3.417-2.465-3.804c-0.216-0.326-0.596-0.862-1.245-1.13v-0.059c3.467-0.833,5.011-2.229,5.011-5.944
			c0-1.099-0.515-2.436-1.409-3.388c-1.028-1.069-2.815-1.812-5.064-1.812C507.657,412.018,505.139,412.105,503.621,412.105z
			 M511.936,417.724c0,1.247-0.946,4.963-5.877,4.963c-0.515,0-0.812-0.029-1.219-0.119v-8.411c0-0.476,0.136-0.802,0.326-0.95
			c0.243-0.178,0.596-0.238,0.921-0.238c2.247,0,3.439,0.445,4.494,1.368C511.367,415.049,511.936,416.355,511.936,417.724z"/>
		<path fill="#213C74" d="M545.931,430.71c-0.379,0.95-0.759,1.366-1.57,1.366h-0.948c-0.109,0-0.216,0.06-0.216,0.208v0.713
			c0,0.179,0.053,0.238,0.188,0.238c0.381,0,0.977-0.09,2.952-0.09c1.601,0,2.709,0.09,3.089,0.09c0.135,0,0.216-0.06,0.216-0.268
			v-0.684c0-0.148-0.081-0.208-0.27-0.208h-1.272c-0.596,0-0.923-0.238-0.923-0.654c0-0.148,0.056-0.445,0.083-0.653
			c0.135-0.623,1.624-5.141,1.896-5.884h6.662c0.381,1.189,1.491,4.993,1.707,6.063c0.19,0.832-0.054,1.129-0.812,1.129h-0.678
			c-0.162,0-0.243,0.03-0.243,0.208v0.684c0,0.178,0.081,0.268,0.216,0.268c0.624,0,1.57-0.09,3.819-0.09
			c2.194,0,2.762,0.09,3.249,0.09c0.19,0,0.271-0.06,0.271-0.209v-0.742c0-0.118-0.054-0.208-0.216-0.208h-0.895
			c-0.678,0-1.381-0.355-1.842-1.337c-0.378-0.861-2.141-6.39-2.762-8.708c-0.516-1.901-2.628-8.558-3.143-10.43
			c-0.081-0.327-0.135-0.505-0.297-0.505c-0.137,0-0.218,0.117-0.353,0.266c-0.299,0.417-1.491,1.308-2.249,1.487
			c-0.188,0.06-0.244,0.179-0.244,0.267c0,0.119,0.109,0.268,0.19,0.387c0.189,0.326,0.054,0.714-0.028,1.011
			c-0.243,0.802-2.438,7.191-2.627,7.785C548.099,424.736,546.12,430.233,545.931,430.71z M552.405,415.078
			c0.081-0.238,0.188-0.445,0.297-0.445c0.081,0,0.137,0.207,0.218,0.416c0.135,0.446,2.328,7.874,2.572,8.766h-5.986
			C549.696,423.071,552.269,415.464,552.405,415.078z"/>
		<path fill="#213C74" d="M573.803,432.076h-1.706c-0.649,0-0.866-0.445-0.921-1.188c-0.026-0.506-0.026-8.827-0.026-9.241v-8.47
			h0.759c1.326,0,3.873,0.059,4.685,0.504c0.895,0.476,1.707,2.765,1.925,3.329c0.081,0.207,0.106,0.238,0.216,0.207l0.434-0.117
			c0.135-0.031,0.189-0.09,0.162-0.238c-0.218-1.308-0.73-4.992-0.786-5.35c-0.054-0.386-0.108-0.476-0.243-0.476
			c-0.109,0-0.19,0.029-0.325,0.119l-0.515,0.356c-0.461,0.297-0.812,0.387-1.408,0.416c-1.328,0.061-2.492,0.178-5.444,0.178
			h-1.301c-2.545,0-3.684-0.117-5.119-0.178c-0.785-0.029-1.057-0.119-1.544-0.505l-0.353-0.268
			c-0.106-0.09-0.188-0.119-0.324-0.119c-0.107,0-0.216,0.09-0.271,0.476c-0.054,0.328-1.002,4.161-1.273,5.23
			c-0.054,0.178,0.028,0.209,0.109,0.238l0.487,0.148c0.136,0.029,0.217,0,0.271-0.148c0.38-0.952,1.192-3.032,2.412-3.448
			c1.055-0.355,3.411-0.355,4.278-0.355h0.678v7.637c0,0.565,0,9.688-0.081,10.55c-0.028,0.357-0.353,0.713-0.894,0.713h-1.843
			c-0.163,0-0.188,0.09-0.188,0.298v0.564c0,0.178,0.025,0.297,0.243,0.297c0.379,0,1.517-0.09,4.117-0.09
			c2.654,0,3.521,0.09,3.791,0.09c0.244,0,0.271-0.09,0.271-0.238v-0.623C574.074,432.166,574.047,432.076,573.803,432.076z"/>
		<path fill="#213C74" d="M585.83,414.008c0-0.595,0.407-0.831,0.948-0.831h1.272c0.137,0,0.218-0.061,0.218-0.209v-0.743
			c0-0.119-0.055-0.207-0.189-0.207c-0.38,0-1.246,0.088-3.657,0.088c-2.519,0-3.9-0.088-4.226-0.088
			c-0.108,0-0.19,0.059-0.19,0.178v0.804c0,0.117,0.082,0.178,0.218,0.178h1.57c1.03,0,1.301,0.297,1.354,1.011
			c0.027,0.445,0.109,5.794,0.109,6.507v2.08c0,1.575-0.082,7.994-0.135,8.44c-0.109,0.771-0.678,0.861-1.22,0.861h-1.517
			c-0.137,0-0.218,0.06-0.218,0.179v0.803c0,0.118,0.081,0.178,0.218,0.178c0.297,0,1.463-0.09,4.035-0.09
			c2.356,0,3.439,0.09,3.766,0.09c0.162,0,0.244-0.06,0.244-0.178v-0.773c0-0.148-0.082-0.208-0.218-0.208h-1.111
			c-0.865,0-1.272-0.148-1.272-1.068c0-0.329-0.082-7.193-0.082-7.49v-2.288C585.748,420.872,585.83,414.305,585.83,414.008z"/>
		<path fill="#213C74" d="M592.9,415.435c-2.087,2.764-2.521,5.586-2.521,7.4c0,4.338,2.059,7.547,3.981,8.825
			c2.141,1.456,4.497,1.932,5.823,1.932c3.738,0,6.15-1.783,7.802-4.189c1.409-2.081,2.031-4.339,2.031-6.509
			c0-4.101-1.732-7.014-3.711-8.886c-2.14-1.961-4.359-2.348-6.066-2.348C597.965,411.66,595.282,412.254,592.9,415.435z
			 M607.364,423.132c0,2.645-1.004,9.332-6.962,9.332c-2.303,0-7.259-2.765-7.259-10.581c0-2.436,0.894-5.438,2.709-7.34
			c2.031-2.109,3.873-1.753,4.278-1.753C603.139,412.79,607.364,416.623,607.364,423.132z"/>
		<path fill="#213C74" d="M631.093,412.018c-0.353,0-1.002,0.088-2.628,0.088c-1.734,0-2.6-0.088-2.979-0.088
			c-0.109,0-0.162,0.059-0.162,0.178v0.772c0,0.148,0.053,0.209,0.162,0.209h0.867c0.758,0,1.273,0.416,1.489,1.159
			c0.162,0.504,0.299,3.417,0.324,4.576c0.056,1.485,0.081,2.941,0.081,5.586v3.536h-0.106c-0.651-0.95-5.228-7.102-5.526-7.518
			c-0.297-0.416-5.552-7.905-5.688-8.083c-0.216-0.268-0.434-0.387-0.784-0.387c-0.327,0-0.896,0.059-1.815,0.059
			c-0.921,0-1.518-0.029-1.923-0.059c-0.406,0-0.624-0.029-0.759-0.029c-0.137,0-0.162,0.059-0.162,0.178v0.772
			c0,0.09,0.025,0.209,0.162,0.209l1.111,0.029c0.974,0.029,1.787,1.011,1.787,2.764v5.051c0,5.292-0.055,8.679-0.108,9.244
			c-0.137,1.456-0.434,1.812-1.22,1.812h-0.921c-0.135,0-0.162,0.09-0.162,0.179v0.771c0,0.149,0.027,0.209,0.135,0.209
			c0.271,0,2.141-0.09,2.709-0.09c0.732,0,2.357,0.09,2.627,0.09c0.19,0,0.218-0.06,0.218-0.238v-0.652
			c0-0.179-0.027-0.269-0.218-0.269h-0.812c-0.73,0-0.895-0.564-1.002-1.724c-0.056-0.594-0.271-5.438-0.271-8.202v-6.597h0.162
			c0.163,0.238,5.146,7.104,5.445,7.4c0.162,0.178,2.139,2.91,4.035,5.497c1.68,2.317,3.277,4.517,3.305,4.575
			c0.081,0.119,0.325,0.478,0.649,0.478c0.109,0,0.137-0.298,0.137-0.714v-11.114c0-1.932,0-4.873,0.107-6.865
			c0.055-1.13,0.324-1.634,1.057-1.634h0.731c0.108,0,0.162-0.09,0.162-0.209v-0.743
			C631.309,412.105,631.282,412.018,631.093,412.018z"/>
		<path fill="#213C74" d="M237.563,447.755h-1.072c-0.123,0-0.215,0.103-0.307,0.235l-0.582,0.908
			c-0.307-0.539-0.889-1.144-2.175-1.144c-3.737,0-8.762,7.259-8.762,12.165c0,1.514,0.95,2.15,1.655,2.15
			c2.175,0,5.269-3.595,6.556-5.745l0.153,0.067c-1.165,3.562-1.471,4.604-1.471,5.107c0,0.436,0.276,0.57,0.644,0.57
			c1.746,0,4.411-2.855,4.749-3.527c0.061-0.102,0.031-0.169-0.062-0.27l-0.276-0.335c-0.061-0.102-0.153-0.034-0.245,0.065
			c-0.215,0.305-1.777,2.051-2.145,2.051c-0.184,0-0.337-0.101-0.337-0.402c0-0.303,1.287-4.471,1.471-5.041
			c0.153-0.539,1.716-5.176,2.297-6.554C237.716,447.925,237.685,447.755,237.563,447.755z M233.703,453.603
			c-0.551,1.244-4.442,6.687-5.974,6.687c-0.521,0-0.828-0.402-0.828-1.176c0-3.192,3.278-10.282,6.097-10.282
			c1.134,0,1.44,1.075,1.44,1.981C234.438,451.789,234.132,452.628,233.703,453.603z"/>
		<path fill="#213C74" d="M252.024,449.134c0-0.874-0.612-1.379-1.531-1.379c-2.727,0-6.066,4.471-6.985,6.083l-0.123-0.067
			c0.246-0.772,1.563-3.965,1.563-5.007c0-0.437-0.275-1.009-0.98-1.009c-2.206,0-4.473,2.79-4.932,3.395
			c-0.092,0.135-0.062,0.202,0.062,0.337l0.275,0.303c0.123,0.133,0.214,0.133,0.307,0.032c0.521-0.639,1.991-2.251,2.573-2.251
			c0.337,0,0.46,0.235,0.46,0.57c0,0.572-0.858,2.992-1.593,5.075l-2.175,6.218c-0.062,0.234,0,0.302,0.336,0.302h1.195
			c0.306,0,0.367-0.067,0.429-0.202l0.766-2.251c0.796-2.353,1.287-3.227,1.838-4.201c1.348-2.386,4.381-5.478,5.576-5.478
			c0.551,0,0.766,0.303,0.766,0.773c0,0.74-1.103,3.528-1.532,4.839c-0.95,2.891-2.053,5.545-2.053,6.183
			c0,0.505,0.337,0.672,0.735,0.672c2.053,0,4.534-2.386,4.902-2.923c0.122-0.167,0.092-0.234-0.031-0.369l-0.215-0.27
			c-0.092-0.135-0.214-0.168-0.337-0.067c-0.398,0.472-1.746,1.713-2.206,1.713c-0.245,0-0.367-0.234-0.367-0.435
			c0-0.539,0.735-2.421,1.563-4.639C251.32,452.358,252.024,450.612,252.024,449.134z"/>
		<path fill="#213C74" d="M269.306,439.052h-3.768c-0.276,0-0.337,0.067-0.368,0.202l-0.184,0.705c-0.031,0.101,0,0.235,0.245,0.235
			h0.949c0.827,0,0.98,0.672,0.766,1.311l-2.359,7.359c-0.521-0.672-1.103-1.109-1.93-1.109c-2.053,0-3.83,1.681-4.81,2.723
			c-2.512,2.723-4.228,6.722-4.228,9.375c0,1.446,0.919,2.218,1.96,2.218c2.083,0,4.963-3.09,6.464-5.713l0.245,0.067
			c-0.674,1.916-1.348,4.201-1.348,4.874c0,0.604,0.337,0.771,0.827,0.771c1.624,0,4.258-2.688,4.473-2.99
			c0.092-0.135,0.092-0.27,0-0.337l-0.306-0.335c-0.092-0.135-0.215-0.135-0.337-0.034c-0.153,0.202-1.623,1.748-2.144,1.748
			c-0.429,0-0.399-0.505-0.123-1.546c0.521-2.017,5.882-17.743,6.341-18.92C269.796,439.388,269.735,439.052,269.306,439.052z
			 M261.616,455.753c-1.226,1.849-3.584,4.604-4.871,4.604c-0.429,0-0.888-0.369-0.888-1.074c0-3.092,3.248-10.451,6.127-10.451
			c0.98,0,1.624,0.638,1.624,2.219C263.607,452.358,262.474,454.477,261.616,455.753z"/>
		<path fill="#213C74" d="M298.557,460.664c-0.759,0-1.382-0.059-1.95-0.504c-0.515-0.416-2.249-3.12-2.384-3.417
			c-0.217-0.387-2.14-3.419-2.465-3.804c-0.217-0.328-0.596-0.862-1.246-1.13v-0.061c3.467-0.831,5.011-2.229,5.011-5.942
			c0-1.101-0.515-2.438-1.408-3.388c-1.029-1.071-2.817-1.813-5.065-1.813c-0.487,0-3.006,0.09-4.523,0.09
			c-2.275,0-3.114-0.09-3.358-0.09c-0.135,0-0.162,0.061-0.162,0.209v0.742c0,0.119,0.027,0.208,0.162,0.208h1.083
			c0.677,0,1.002,0.506,1.029,1.485c0.027,0.862,0.027,2.764,0.027,4.963v2.883c0,2.823,0,5.616-0.055,8.56
			c0,0.802-0.46,1.009-1.056,1.009h-1.11c-0.136,0-0.136,0.09-0.136,0.238v0.685c0,0.148,0,0.236,0.217,0.236
			c0.298,0,0.921-0.088,3.386-0.088c2.573,0,3.25,0.088,3.548,0.088c0.271,0,0.298-0.059,0.298-0.266v-0.655
			c0-0.148-0.027-0.238-0.217-0.238h-1.706c-0.407,0-0.624-0.533-0.677-1.157c-0.027-0.447-0.054-3.774-0.054-5.527v-1.666
			c0.379-0.088,0.65-0.088,0.894-0.088c1.571,0,2.221,0.802,2.926,1.725c0.325,0.414,1.625,2.555,1.733,2.762
			c0.136,0.238,1.598,3.062,1.814,3.419c0.244,0.385,0.84,1.396,1.138,1.692c0.406-0.029,1.409-0.088,2.194-0.088
			c1.192,0,1.896,0.088,2.113,0.088c0.189,0,0.216-0.088,0.216-0.266v-0.655C298.773,460.783,298.746,460.664,298.557,460.664z
			 M286.963,451.273c-0.515,0-0.813-0.029-1.219-0.119v-8.409c0-0.475,0.135-0.803,0.325-0.951c0.244-0.179,0.596-0.237,0.921-0.237
			c2.248,0,3.44,0.446,4.496,1.367c0.786,0.713,1.354,2.021,1.354,3.387C292.841,447.56,291.893,451.273,286.963,451.273z"/>
		<path fill="#213C74" d="M315.486,456.595l-0.434-0.268c-0.162-0.09-0.243,0.029-0.325,0.178c-0.379,0.684-1.896,2.822-2.221,3.119
			c-0.704,0.655-1.896,0.981-2.356,1.04c-0.569,0.061-1.923,0.09-2.383,0.09c-0.677,0-1.463-0.09-2.005-0.207
			c-0.839-0.18-1.517-0.773-1.544-2.318c0-0.594-0.054-3.478-0.054-5.082v-1.843c0.434,0,2.302,0,3.575,0.148
			c0.704,0.09,1.002,0.535,1.165,1.159c0.082,0.328,0.244,1.01,0.298,1.397c0.026,0.207,0.081,0.297,0.216,0.268l0.596-0.09
			c0.108-0.029,0.163-0.088,0.163-0.236c-0.055-0.626-0.163-2.051-0.163-3.093c0-0.445,0-2.881,0.082-3.388
			c0.027-0.119-0.027-0.236-0.163-0.236l-0.677-0.031c-0.108,0-0.189,0.061-0.189,0.209c-0.027,0.565-0.135,1.159-0.217,1.456
			c-0.244,0.921-0.46,1.159-1.246,1.308c-0.325,0.06-3.223,0.179-3.439,0.179v-8.708l4.821,0.119
			c0.731,0.029,1.49,0.387,2.059,0.803c0.65,0.446,2.654,3.269,2.708,3.388c0.027,0.059,0.135,0.148,0.216,0.088l0.407-0.236
			c0.108-0.061,0.108-0.148,0.081-0.268c-0.081-0.298-1.273-4.369-1.381-4.785c-0.027-0.088-0.082-0.148-0.217-0.148
			s-0.65,0.061-1.083,0.061c-2.681,0-5.363,0.029-8.044,0.029h-1.192c-1.788,0-2.736-0.09-3.331-0.09
			c-0.136,0-0.19,0.061-0.19,0.148v0.803c0,0.179,0.082,0.208,0.217,0.208h0.976c1.002,0,1.273,0.209,1.381,1.159
			c0.027,0.297,0.081,4.013,0.081,6.478v2.912v7.043c0,1.101-0.108,1.308-1.354,1.308h-1.084c-0.189,0-0.271,0.031-0.271,0.148
			v0.804c0,0.148,0.081,0.207,0.244,0.207c0.243,0,0.595-0.029,1.164-0.059c0.542,0,1.3-0.029,2.303-0.029
			c4.226,0,6.853,0.029,8.478,0.029c1.625,0.029,2.221,0.059,2.356,0.059c0.325,0,0.515-0.178,0.596-0.445l1.436-4.369
			C315.621,456.772,315.621,456.683,315.486,456.595z"/>
		<path fill="#213C74" d="M332.713,455.643l-0.433-0.178c-0.108-0.061-0.163,0-0.217,0.119c-0.379,1.159-2.004,4.725-3.603,4.992
			c-0.839,0.119-6.202,0.059-6.798,0c-0.081-1.22-0.081-7.637-0.081-8.144v-2.555c0-2.081,0.081-6.567,0.081-6.954
			c0-0.862,0.108-1.159,0.948-1.159h1.625c0.217,0,0.271-0.089,0.271-0.237v-0.684c0-0.148-0.027-0.238-0.244-0.238
			c-0.244,0-1.381,0.09-4.008,0.09c-2.249,0-3.224-0.09-3.521-0.09c-0.163,0-0.189,0.061-0.189,0.209v0.652
			c0,0.148,0.027,0.298,0.189,0.298h1.273c0.813,0,0.948,0.297,1.002,1.07c0.027,0.534,0.082,3.685,0.082,5.587v1.663
			c0,1.814-0.082,9.213-0.082,9.778c0,0.387-0.162,0.801-1.164,0.801h-1.3c-0.163,0-0.19,0.061-0.19,0.209v0.743
			c0,0.148,0.027,0.207,0.217,0.207c0.19,0,0.515-0.029,1.057-0.059c0.569,0,1.354-0.029,2.411-0.029c1.463,0,4.117,0,6.527,0.029
			c2.411,0,4.523,0.029,4.875,0.059c0.163-0.802,1.246-5.705,1.328-5.913C332.794,455.732,332.794,455.703,332.713,455.643z"/>
		<path fill="#213C74" d="M352.433,460.664h-0.894c-0.677,0-1.382-0.355-1.842-1.337c-0.379-0.862-2.14-6.388-2.763-8.706
			c-0.514-1.902-2.627-8.56-3.142-10.433c-0.081-0.326-0.135-0.504-0.298-0.504c-0.136,0-0.217,0.119-0.352,0.268
			c-0.298,0.416-1.49,1.308-2.248,1.485c-0.189,0.059-0.244,0.178-0.244,0.268c0,0.119,0.108,0.269,0.189,0.386
			c0.19,0.328,0.054,0.714-0.027,1.011c-0.244,0.803-2.438,7.193-2.627,7.787c-0.786,2.436-2.763,7.935-2.953,8.409
			c-0.379,0.952-0.758,1.366-1.571,1.366h-0.948c-0.108,0-0.217,0.061-0.217,0.209v0.714c0,0.178,0.055,0.236,0.19,0.236
			c0.379,0,0.975-0.088,2.953-0.088c1.598,0,2.708,0.088,3.088,0.088c0.135,0,0.216-0.059,0.216-0.266v-0.685
			c0-0.148-0.082-0.209-0.271-0.209H337.4c-0.596,0-0.921-0.236-0.921-0.652c0-0.148,0.054-0.446,0.081-0.655
			c0.136-0.623,1.625-5.141,1.896-5.884h6.663c0.379,1.188,1.49,4.992,1.707,6.063c0.19,0.831-0.054,1.128-0.813,1.128h-0.677
			c-0.162,0-0.244,0.031-0.244,0.209v0.685c0,0.178,0.082,0.266,0.217,0.266c0.623,0,1.571-0.088,3.819-0.088
			c2.194,0,2.763,0.088,3.25,0.088c0.19,0,0.271-0.059,0.271-0.207v-0.743C352.649,460.754,352.595,460.664,352.433,460.664z
			 M338.809,452.403c0.189-0.742,2.763-8.351,2.898-8.737c0.082-0.236,0.19-0.445,0.298-0.445c0.081,0,0.135,0.209,0.216,0.416
			c0.135,0.445,2.33,7.876,2.573,8.767H338.809z"/>
		<path fill="#213C74" d="M367.602,439.626c-0.108,0-0.19,0.029-0.325,0.117l-0.515,0.357c-0.46,0.297-0.813,0.387-1.408,0.416
			c-1.328,0.06-2.492,0.179-5.444,0.179h-1.3c-2.546,0-3.684-0.119-5.119-0.179c-0.786-0.029-1.056-0.119-1.544-0.506l-0.352-0.268
			c-0.108-0.088-0.189-0.117-0.325-0.117c-0.108,0-0.217,0.088-0.271,0.475c-0.055,0.326-1.002,4.16-1.273,5.23
			c-0.054,0.179,0.027,0.208,0.108,0.237l0.488,0.148c0.135,0.029,0.217,0,0.271-0.148c0.379-0.95,1.192-3.03,2.411-3.446
			c1.057-0.357,3.413-0.357,4.28-0.357h0.677v7.637c0,0.564,0,9.689-0.081,10.552c-0.027,0.355-0.352,0.711-0.894,0.711h-1.842
			c-0.163,0-0.189,0.09-0.189,0.298v0.564c0,0.18,0.026,0.297,0.243,0.297c0.379,0,1.517-0.088,4.117-0.088
			c2.655,0,3.521,0.088,3.792,0.088c0.244,0,0.271-0.088,0.271-0.236v-0.625c0-0.208-0.027-0.298-0.271-0.298h-1.706
			c-0.65,0-0.867-0.445-0.921-1.188c-0.026-0.504-0.026-8.825-0.026-9.241v-8.47h0.758c1.327,0,3.873,0.06,4.686,0.506
			c0.894,0.475,1.707,2.764,1.923,3.327c0.081,0.209,0.108,0.238,0.217,0.209l0.433-0.119c0.135-0.029,0.189-0.09,0.163-0.238
			c-0.217-1.308-0.731-4.992-0.786-5.349C367.791,439.714,367.737,439.626,367.602,439.626z"/>
		<path fill="#213C74" d="M386.536,456.595l-0.434-0.268c-0.163-0.09-0.244,0.029-0.325,0.178c-0.379,0.684-1.896,2.822-2.221,3.119
			c-0.704,0.655-1.896,0.981-2.356,1.04c-0.569,0.061-1.923,0.09-2.384,0.09c-0.677,0-1.462-0.09-2.004-0.207
			c-0.84-0.18-1.517-0.773-1.544-2.318c0-0.594-0.054-3.478-0.054-5.082v-1.843c0.434,0,2.302,0,3.576,0.148
			c0.704,0.09,1.002,0.535,1.165,1.159c0.081,0.328,0.244,1.01,0.298,1.397c0.027,0.207,0.081,0.297,0.216,0.268l0.596-0.09
			c0.108-0.029,0.163-0.088,0.163-0.236c-0.054-0.626-0.163-2.051-0.163-3.093c0-0.445,0-2.881,0.081-3.388
			c0.027-0.119-0.027-0.236-0.162-0.236l-0.677-0.031c-0.108,0-0.19,0.061-0.19,0.209c-0.027,0.565-0.135,1.159-0.217,1.456
			c-0.243,0.921-0.46,1.159-1.246,1.308c-0.325,0.06-3.223,0.179-3.44,0.179v-8.708l4.821,0.119c0.09,0.003,0.18,0.025,0.271,0.039
			c0.304,0.761,1.107,1.323,2.069,1.323c0.092,0,0.179-0.014,0.269-0.019c0.848,0.96,2.116,2.752,2.159,2.847
			c0.027,0.059,0.135,0.148,0.216,0.088l0.406-0.236c0.108-0.061,0.108-0.148,0.081-0.268c-0.049-0.182-0.511-1.763-0.889-3.064
			c2.093-1.287,3.673-4.374,5.08-8.32c1.531-4.301,2.941-10.115,3.737-12.836h2.911c0.245,0,0.306-0.035,0.337-0.235l0.153-0.606
			c0.061-0.302,0-0.402-0.184-0.402h-2.972c1.011-3.764,2.114-8.737,4.963-8.737c0.919,0,1.226,0.639,1.256,0.975
			c0.091,0.739,0.368,1.344,1.348,1.344c0.613,0,1.226-0.503,1.226-1.545c0-0.807-0.98-1.982-2.757-1.982
			c-1.991,0-3.676,1.209-4.534,2.285c-1.624,1.981-2.665,4.771-3.584,7.661h-2.666c-0.245,0-0.306,0.101-0.368,0.337l-0.123,0.57
			c-0.061,0.234,0,0.337,0.153,0.337h2.727l-3.094,11.425c-1.333,5.01-2.666,7.812-3.903,8.714
			c-0.101-0.351-0.175-0.613-0.198-0.703c-0.027-0.088-0.082-0.148-0.217-0.148c-0.136,0-0.65,0.061-1.083,0.061
			c-0.024,0-0.047,0-0.07,0c-0.219-0.484-0.632-0.966-1.268-0.966c-0.628,0-1.08,0.42-1.245,0.974
			c-1.821,0.009-3.641,0.021-5.461,0.021h-1.192c-1.788,0-2.736-0.09-3.332-0.09c-0.136,0-0.19,0.061-0.19,0.148v0.803
			c0,0.179,0.082,0.208,0.217,0.208h0.975c1.002,0,1.273,0.209,1.381,1.159c0.027,0.297,0.082,4.013,0.082,6.478v2.912v7.043
			c0,1.101-0.108,1.308-1.354,1.308h-1.083c-0.189,0-0.271,0.031-0.271,0.148v0.804c0,0.148,0.082,0.207,0.244,0.207
			c0.244,0,0.596-0.029,1.165-0.059c0.542,0,1.3-0.029,2.303-0.029c4.225,0,6.852,0.029,8.477,0.029
			c1.626,0.029,2.221,0.059,2.357,0.059c0.325,0,0.515-0.178,0.596-0.445l1.436-4.369
			C386.671,456.772,386.671,456.683,386.536,456.595z"/>
		<path fill="#213C74" d="M395.42,440.605c-0.623,0-3.332,0.09-4.036,0.09c-2.438,0-3.63-0.09-3.982-0.09
			c-0.108,0-0.189,0.031-0.189,0.148v0.803c0,0.179,0.081,0.208,0.217,0.208h1.489c0.731,0,1.083,0.119,1.165,0.832
			c0.055,0.505,0.136,4.725,0.136,5.499v2.229c0,2.317-0.108,9.003-0.189,9.629c-0.055,0.475-0.353,0.711-0.867,0.711h-1.815
			c-0.135,0-0.217,0.061-0.217,0.18v0.772c0,0.148,0.054,0.207,0.19,0.207c0.379,0,1.462-0.088,3.819-0.088
			c1.219,0,3.277,0.088,4.984,0.088c2.085,0,5.824,0,8.424-3.148c1.788-2.141,2.681-4.398,2.681-7.817
			c0-3.446-1.246-5.913-3.006-7.576C401.84,441.051,398.915,440.605,395.42,440.605z M402.463,457.664
			c-1.354,1.901-3.603,3.209-6.365,3.209c-1.354,0-2.438-0.326-2.871-0.951c-0.353-0.595-0.461-1.069-0.461-1.664
			c-0.027-1.843-0.054-6.895-0.054-7.281v-2.109c0-0.475,0-4.368,0.027-5.617c0.027-0.653,0.135-1.128,0.515-1.396
			c0.46-0.298,1.571-0.298,2.167-0.298c3.006,0,5.39,1.159,6.798,2.853c1.3,1.575,2.221,4.249,2.221,6.567
			C404.44,453.682,403.6,456.118,402.463,457.664z"/>
		<path fill="#213C74" d="M430.851,439.626c-0.108,0-0.19,0.029-0.326,0.117l-0.514,0.357c-0.461,0.297-0.813,0.387-1.409,0.416
			c-1.327,0.06-2.491,0.179-5.445,0.179h-1.298c-2.547,0-3.684-0.119-5.12-0.179c-0.786-0.029-1.057-0.119-1.544-0.506l-0.352-0.268
			c-0.108-0.088-0.189-0.117-0.325-0.117c-0.108,0-0.217,0.088-0.271,0.475c-0.054,0.326-1.002,4.16-1.273,5.23
			c-0.054,0.179,0.027,0.208,0.108,0.237l0.487,0.148c0.135,0.029,0.217,0,0.271-0.148c0.379-0.95,1.192-3.03,2.411-3.446
			c1.056-0.357,3.413-0.357,4.28-0.357h0.676v7.637c0,0.564,0,9.689-0.081,10.552c-0.026,0.355-0.352,0.711-0.893,0.711h-1.842
			c-0.163,0-0.19,0.09-0.19,0.298v0.564c0,0.18,0.027,0.297,0.244,0.297c0.379,0,1.517-0.088,4.116-0.088
			c2.655,0,3.522,0.088,3.793,0.088c0.244,0,0.27-0.088,0.27-0.236v-0.625c0-0.208-0.025-0.298-0.27-0.298h-1.706
			c-0.649,0-0.867-0.445-0.921-1.188c-0.027-0.504-0.027-8.825-0.027-9.241v-8.47h0.758c1.327,0,3.873,0.06,4.687,0.506
			c0.894,0.475,1.707,2.764,1.923,3.327c0.081,0.209,0.109,0.238,0.216,0.209l0.434-0.119c0.137-0.029,0.19-0.09,0.163-0.238
			c-0.217-1.308-0.731-4.992-0.785-5.349C431.039,439.714,430.985,439.626,430.851,439.626z"/>
		<path fill="#213C74" d="M449.783,456.595l-0.434-0.268c-0.162-0.09-0.243,0.029-0.324,0.178c-0.379,0.684-1.896,2.822-2.222,3.119
			c-0.703,0.655-1.896,0.981-2.356,1.04c-0.568,0.061-1.923,0.09-2.384,0.09c-0.677,0-1.461-0.09-2.004-0.207
			c-0.84-0.18-1.517-0.773-1.544-2.318c0-0.594-0.054-3.478-0.054-5.082v-1.843c0.434,0,2.303,0,3.575,0.148
			c0.703,0.09,1.002,0.535,1.165,1.159c0.081,0.328,0.243,1.01,0.297,1.397c0.027,0.207,0.081,0.297,0.218,0.268l0.596-0.09
			c0.109-0.029,0.162-0.088,0.162-0.236c-0.053-0.626-0.162-2.051-0.162-3.093c0-0.445,0-2.881,0.081-3.388
			c0.028-0.119-0.027-0.236-0.162-0.236l-0.677-0.031c-0.109,0-0.19,0.061-0.19,0.209c-0.027,0.565-0.135,1.159-0.216,1.456
			c-0.245,0.921-0.461,1.159-1.247,1.308c-0.325,0.06-3.224,0.179-3.439,0.179v-8.708l4.821,0.119
			c0.73,0.029,1.489,0.387,2.059,0.803c0.65,0.446,2.654,3.269,2.709,3.388c0.026,0.059,0.135,0.148,0.216,0.088l0.406-0.236
			c0.108-0.061,0.108-0.148,0.081-0.268c-0.081-0.298-1.273-4.369-1.38-4.785c-0.028-0.088-0.081-0.148-0.218-0.148
			c-0.135,0-0.649,0.061-1.083,0.061c-2.682,0-5.364,0.029-8.045,0.029h-1.192c-1.788,0-2.734-0.09-3.33-0.09
			c-0.137,0-0.19,0.061-0.19,0.148v0.803c0,0.179,0.081,0.208,0.216,0.208h0.977c1.002,0,1.272,0.209,1.38,1.159
			c0.027,0.297,0.081,4.013,0.081,6.478v2.912v7.043c0,1.101-0.106,1.308-1.354,1.308h-1.083c-0.188,0-0.27,0.031-0.27,0.148v0.804
			c0,0.148,0.082,0.207,0.244,0.207c0.243,0,0.596-0.029,1.164-0.059c0.541,0,1.299-0.029,2.303-0.029
			c4.226,0,6.853,0.029,8.477,0.029c1.626,0.029,2.222,0.059,2.358,0.059c0.324,0,0.513-0.178,0.594-0.445l1.436-4.369
			C449.92,456.772,449.92,456.683,449.783,456.595z"/>
		<path fill="#213C74" d="M469.34,456.921l-0.353-0.297c-0.081-0.09-0.135-0.061-0.217,0.088c-1.246,1.933-3.63,3.774-6.689,3.774
			c-1.815,0-3.359-0.236-5.201-2.496c-2.112-2.555-2.6-5.913-2.6-7.637c-0.027-4.34,1.923-9.064,6.771-9.064
			c2.139,0,3.574,1.011,4.713,2.289c1.138,1.276,1.734,2.703,2.112,3.685c0.081,0.236,0.135,0.268,0.271,0.236l0.405-0.117
			c0.109-0.031,0.135-0.148,0.109-0.297c-0.137-0.833-0.678-5.201-0.678-5.767c0-0.416-0.055-0.475-0.299-0.475
			c-0.243,0-0.297,0-0.352,0.178l-0.217,0.862c-0.053,0.207-0.189,0.238-0.542,0c-0.975-0.624-3.006-1.635-5.471-1.635
			c-2.952,0-5.39,1.396-6.771,3.001c-1.95,2.26-2.763,5.111-2.763,7.875c0,2.854,0.948,6.301,2.898,8.321
			c1.624,1.635,3.655,2.734,6.854,2.734c3.817,0,6.445-2.407,8.07-4.992C469.475,457.04,469.421,456.979,469.34,456.921z"/>
		<path fill="#213C74" d="M491.902,460.664h-1.191c-0.813,0-1.084-0.414-1.084-1.485c-0.027-1.692-0.081-7.34-0.081-8.29v-1.011
			c0-1.101,0.054-6.122,0.054-6.538c0-1.069,0.083-1.575,0.867-1.575h1.22c0.162,0,0.216-0.029,0.216-0.208v-0.713
			c0-0.178-0.025-0.238-0.216-0.238c-0.515,0-1.626,0.09-3.467,0.09c-1.842,0-3.008-0.09-3.576-0.09
			c-0.135,0-0.162,0.061-0.162,0.18v0.771c0,0.148,0.054,0.208,0.189,0.208h1.408c0.786,0,0.895,0.564,0.895,1.517
			c0,0.355,0.082,4.486,0.082,6.181v0.297c0,0.387-0.137,0.446-0.543,0.446h-10.021c-0.246,0-0.327-0.09-0.327-0.239v-0.504
			c0-1.665,0.056-5.587,0.056-6.003c0-1.188,0.135-1.694,1.056-1.694h1.382c0.162,0,0.216-0.06,0.216-0.237v-0.773
			c0-0.117-0.081-0.148-0.27-0.148c-0.515,0-1.491,0.09-3.604,0.09c-2.384,0-3.249-0.09-3.792-0.09
			c-0.135,0-0.216,0.061-0.216,0.209v0.713c0,0.178,0.026,0.237,0.162,0.237h1.273c1.002,0,1.19,0.416,1.19,1.931
			c0,0.477,0.055,4.488,0.055,6.331v1.277c0,0.773-0.055,6.538-0.081,7.936c0,0.714-0.081,1.425-0.758,1.425h-1.598
			c-0.109,0-0.19,0.061-0.19,0.18v0.772c0,0.148,0.054,0.207,0.19,0.207c0.621,0,1.435-0.088,3.764-0.088
			c1.95,0,2.898,0.088,3.413,0.088c0.163,0,0.217-0.059,0.217-0.207v-0.743c0-0.148-0.054-0.209-0.217-0.209h-1.328
			c-0.568,0-0.84-0.297-0.865-1.009c-0.027-2.081-0.056-6.657-0.056-7.459v-0.625c0-0.208,0.081-0.298,0.38-0.298h9.914
			c0.46,0,0.597,0.03,0.597,0.358v0.416c0,1.069-0.056,5.854-0.082,7.25c0,0.804-0.081,1.366-0.732,1.366h-1.706
			c-0.163,0-0.216,0.061-0.216,0.209v0.743c0,0.119,0.053,0.207,0.162,0.207c0.812,0,1.679-0.088,4.035-0.088
			c1.978,0,2.898,0.088,3.413,0.088c0.163,0,0.217-0.059,0.217-0.236v-0.714C492.146,460.725,492.093,460.664,491.902,460.664z"/>
		<path fill="#213C74" d="M513.193,440.605c-0.353,0-1.002,0.09-2.627,0.09c-1.733,0-2.601-0.09-2.979-0.09
			c-0.109,0-0.162,0.061-0.162,0.18v0.771c0,0.148,0.053,0.208,0.162,0.208h0.865c0.759,0,1.273,0.416,1.491,1.159
			c0.162,0.506,0.297,3.418,0.324,4.575c0.054,1.487,0.081,2.944,0.081,5.589v3.536h-0.108c-0.649-0.952-5.228-7.104-5.524-7.52
			c-0.299-0.415-5.554-7.905-5.688-8.083c-0.218-0.268-0.434-0.385-0.786-0.385c-0.324,0-0.893,0.059-1.813,0.059
			c-0.923,0-1.517-0.029-1.925-0.059c-0.406,0-0.622-0.031-0.758-0.031c-0.135,0-0.163,0.061-0.163,0.18v0.771
			c0,0.089,0.028,0.208,0.163,0.208l1.11,0.029c0.976,0.03,1.788,1.011,1.788,2.764v5.053c0,5.289-0.054,8.677-0.109,9.242
			c-0.135,1.456-0.434,1.812-1.218,1.812h-0.921c-0.136,0-0.162,0.09-0.162,0.18v0.772c0,0.148,0.026,0.207,0.135,0.207
			c0.271,0,2.141-0.088,2.709-0.088c0.73,0,2.356,0.088,2.627,0.088c0.19,0,0.216-0.059,0.216-0.236v-0.654
			c0-0.179-0.025-0.269-0.216-0.269h-0.813c-0.73,0-0.893-0.563-1.002-1.722c-0.054-0.595-0.271-5.44-0.271-8.202v-6.599h0.165
			c0.162,0.238,5.146,7.103,5.442,7.4c0.163,0.178,2.141,2.912,4.036,5.498c1.681,2.316,3.278,4.518,3.305,4.576
			c0.081,0.119,0.326,0.475,0.65,0.475c0.107,0,0.135-0.297,0.135-0.713v-11.114c0-1.932,0-4.873,0.109-6.865
			c0.054-1.128,0.324-1.634,1.056-1.634h0.732c0.106,0,0.162-0.089,0.162-0.208v-0.742
			C513.411,440.695,513.384,440.605,513.193,440.605z"/>
		<path fill="#213C74" d="M525.248,440.249c-2.275,0-4.957,0.595-7.341,3.774c-2.085,2.765-2.519,5.587-2.519,7.399
			c0,4.339,2.06,7.549,3.982,8.827c2.139,1.456,4.496,1.931,5.823,1.931c3.738,0,6.147-1.782,7.801-4.19
			c1.408-2.08,2.031-4.339,2.031-6.507c0-4.102-1.734-7.014-3.71-8.887C529.176,440.637,526.954,440.249,525.248,440.249z
			 M525.41,461.052c-2.301,0-7.259-2.765-7.259-10.579c0-2.438,0.895-5.438,2.708-7.34c2.032-2.111,3.873-1.754,4.281-1.754
			c3.006,0,7.231,3.833,7.231,10.341C532.372,454.364,531.37,461.052,525.41,461.052z"/>
		<path fill="#213C74" d="M553.311,455.643l-0.434-0.178c-0.109-0.061-0.163,0-0.218,0.119c-0.379,1.159-2.004,4.725-3.602,4.992
			c-0.84,0.119-6.204,0.059-6.8,0c-0.081-1.22-0.081-7.637-0.081-8.144v-2.555c0-2.081,0.081-6.567,0.081-6.954
			c0-0.862,0.109-1.159,0.948-1.159h1.626c0.216,0,0.271-0.089,0.271-0.237v-0.684c0-0.148-0.028-0.238-0.244-0.238
			c-0.243,0-1.382,0.09-4.01,0.09c-2.247,0-3.223-0.09-3.521-0.09c-0.162,0-0.189,0.061-0.189,0.209v0.652
			c0,0.148,0.027,0.298,0.189,0.298h1.273c0.812,0,0.948,0.297,1.002,1.07c0.027,0.534,0.081,3.685,0.081,5.587v1.663
			c0,1.814-0.081,9.213-0.081,9.778c0,0.387-0.162,0.801-1.164,0.801h-1.301c-0.163,0-0.19,0.061-0.19,0.209v0.743
			c0,0.148,0.027,0.207,0.218,0.207c0.188,0,0.515-0.029,1.056-0.059c0.568,0,1.354-0.029,2.411-0.029c1.462,0,4.117,0,6.526,0.029
			c2.412,0,4.524,0.029,4.877,0.059c0.162-0.802,1.245-5.705,1.326-5.913C553.392,455.732,553.392,455.703,553.311,455.643z"/>
		<path fill="#213C74" d="M564.226,440.249c-2.274,0-4.956,0.595-7.34,3.774c-2.085,2.765-2.519,5.587-2.519,7.399
			c0,4.339,2.06,7.549,3.982,8.827c2.139,1.456,4.496,1.931,5.823,1.931c3.738,0,6.147-1.782,7.801-4.19
			c1.408-2.08,2.031-4.339,2.031-6.507c0-4.102-1.734-7.014-3.71-8.887C568.154,440.637,565.933,440.249,564.226,440.249z
			 M564.389,461.052c-2.301,0-7.259-2.765-7.259-10.579c0-2.438,0.895-5.438,2.708-7.34c2.032-2.111,3.873-1.754,4.281-1.754
			c3.006,0,7.23,3.833,7.23,10.341C571.35,454.364,570.348,461.052,564.389,461.052z"/>
		<path fill="#213C74" d="M596.108,452.642c-0.381,0-1.246,0.089-3.196,0.089c-1.843,0-3.061-0.089-3.441-0.089
			c-0.135,0-0.162,0.06-0.162,0.237v0.742c0,0.119,0.056,0.18,0.19,0.18h1.138c0.813,0,1.109,0.298,1.109,1.367v2.198
			c0,1.545-0.107,2.199-0.73,2.616c-0.948,0.594-2.275,1.01-4.441,1.01c-1.762,0-3.413-0.684-4.768-2.11
			c-1.68-1.754-2.574-4.814-2.574-8.321c0-2.674,0.921-5.141,2.384-6.834c1.626-1.902,3.305-2.408,5.174-2.408
			c2.438,0,4.116,1.337,4.931,2.438c0.948,1.278,1.407,2.674,1.623,3.507c0.028,0.148,0.109,0.236,0.218,0.236l0.487-0.059
			c0.109,0,0.137-0.119,0.137-0.268l-0.081-5.677c0-0.207-0.056-0.355-0.245-0.355c-0.163,0-0.27,0.148-0.379,0.268l-0.406,0.534
			c-0.162,0.238-0.324,0.297-0.623,0.031c-0.921-0.774-3.006-1.725-5.336-1.725c-3.25,0-5.688,1.011-7.611,2.823
			c-2.004,1.962-3.062,4.844-3.062,7.549c0,3.595,0.84,6.122,2.493,8.173c1.869,2.406,5.174,3.387,7.583,3.387
			c3.034,0,5.202-0.684,7.396-1.901c0.271-0.119,0.434-0.238,0.434-0.476c0-0.238-0.108-0.535-0.108-0.951v-3.923
			c0-0.921,0.353-1.129,0.839-1.129h1.058c0.162,0,0.188-0.119,0.188-0.238v-0.713C596.324,452.73,596.298,452.642,596.108,452.642z
			"/>
		<path fill="#213C74" d="M615.284,440.605c-0.243,0-0.839,0.09-2.438,0.09c-1.813,0-2.924-0.09-3.195-0.09
			c-0.162,0-0.19,0.061-0.19,0.18v0.711c0,0.18,0.028,0.269,0.19,0.269h0.73c1.139,0,1.004,0.654,0.896,1.159
			c-0.109,0.535-3.901,6.716-4.903,8.439c-0.813-1.694-4.144-8.143-4.226-8.618c-0.108-0.713,0-0.98,0.813-0.98h0.895
			c0.162,0,0.188-0.119,0.188-0.269v-0.742c0-0.088-0.026-0.148-0.188-0.148c-0.271,0-1.247,0.09-4.037,0.09
			c-1.651,0-2.924-0.09-3.168-0.09c-0.162,0-0.189,0.061-0.189,0.18v0.771c0,0.119,0.027,0.208,0.189,0.208h0.678
			c0.434,0,1.055,0.268,1.407,0.713c0.786,1.04,5.282,9.422,5.635,10.194v1.724c0,2.762-0.055,5.111-0.083,5.526
			c-0.025,0.445-0.243,0.742-0.946,0.742h-1.328c-0.163,0-0.188,0.09-0.188,0.209v0.714c0,0.148,0.054,0.236,0.162,0.236
			c0.297,0,1.137-0.088,3.574-0.088c2.277,0,3.332,0.088,3.657,0.088c0.19,0,0.19-0.088,0.19-0.266v-0.685
			c0-0.119,0-0.209-0.19-0.209h-1.056c-0.705,0-1.11-0.088-1.191-1.04c-0.028-0.326-0.109-2.258-0.109-3.416v-3.895
			c1.029-1.634,5.879-9.33,6.419-9.895c0.462-0.477,0.921-0.654,1.327-0.654h0.677c0.19,0,0.218-0.089,0.218-0.269v-0.711
			C615.502,440.666,615.475,440.605,615.284,440.605z"/>
		<rect x="208.318" y="133.099" fill="#213C74" width="425.255" height="234.604"/>
	</g>
	<g>
		<path fill="#FFFFFF" d="M338.924,279.496h3.021l-1.51-42.896h-4.531c0,0-1.813,8.761-6.344,8.761
			c-4.531,0-12.687-8.761-34.135-8.761s-59.51,19.031-59.51,70.384s43.5,61.928,59.51,61.928c16.01,0,31.718-5.438,41.989-18.729
			l-3.625-5.438c0,0-9.364,15.405-32.02,15.405c-22.656,0-44.708-17.218-44.708-55.28c0-38.062,17.219-60.718,41.989-60.718
			S333.487,262.58,338.924,279.496z"/>
		<ellipse fill="#FFFFFF" cx="372.757" cy="322.844" rx="43.5" ry="46.066"/>
		<path fill="#FFFFFF" d="M473.949,321.484c0,0,19.636-7.25,15.387-24.478c-4.364-17.688-25.458-18.719-32.604-18.719
			c-7.148,0-45.01,0-45.01,0v3.608c14.198,0,12.99,9.079,12.99,9.079s0,48.03,0,61.926s-12.99,10.894-12.99,10.894v3.909
			c0,0,27.188,0,46.52,0c19.334,0,35.344-6.948,35.344-24.771C493.585,325.109,473.949,321.484,473.949,321.484z M438.305,284.328
			c0,0,36.854-5.035,36.854,16.615s-28.396,18.125-36.854,16.615V284.328z M438.305,360.287v-35.242c0,0,39.572-5.341,39.572,17.62
			C477.877,365.628,447.386,361.889,438.305,360.287z"/>
		<path fill="#FFFFFF" d="M529.207,281.896v-3.608h-37.74v3.608c0,0,12.084-0.285,12.084,6.964c0,7.249,0,68.873,0,68.873
			s-0.604,8.157-12.084,5.136v4.834h37.74v-4.834c-11.479,3.021-12.084-5.136-12.084-5.136s0-61.624,0-68.873
			C517.123,281.611,529.207,281.896,529.207,281.896z"/>
		<path fill="#FFFFFF" d="M606.236,241.131H506.27l-2.114,29.604h4.531c0-20.239,17.52-19.937,17.52-19.937h20.542
			c0,0,0,75.217,0,96.666c0,21.446-17.541,15.405-17.541,15.405v4.834h54.092v-4.834c0,0-17.542,6.041-17.542-15.405
			c0-21.448,0-96.666,0-96.666h20.541c0,0,17.521-0.302,17.521,19.937h4.531L606.236,241.131z"/>
	</g>
	<path fill="#A4224C" d="M344.965,322.844c0-22.615,9.062-40.948,27.791-40.948c18.729,0,27.792,18.333,27.792,40.948
		c0,22.616-7.512,40.95-27.792,40.95C352.478,363.794,344.965,345.46,344.965,322.844z"/>
</g>
</svg>
